<svg class="SVGInline-svg SVG-component__content-svg" viewBox="0 0 41 40" fill="none" xmlns="http://www.w3.org/2000/svg"><rect x="0.5" width="40" height="40" rx="20" fill="url(#paint0_linear_10343_55242)"></rect><g opacity="0.979" filter="url(#filter0_iiii_10343_55242)"><path fill-rule="evenodd" clip-rule="evenodd" d="M30.5 16.3616C30.5 16.8124 30.5 17.2631 30.5 17.7138C30.3122 19.0638 29.7979 20.247 28.957 21.2634C27.2602 23.2117 25.5349 25.1344 23.7812 27.0313C23.3906 27.4257 23 27.8201 22.6094 28.2145C21.5335 29.0727 20.3746 29.2277 19.1328 28.6793C18.9505 28.5666 18.7682 28.454 18.5859 28.3413C16.2227 26.0665 13.9896 23.6508 11.8867 21.0943C11.1147 20.1144 10.6525 18.9876 10.5 17.7138C10.5 17.2913 10.5 16.8687 10.5 16.4461C10.8078 14.0696 11.9797 12.4005 14.0156 11.4388C16.3075 10.6086 18.3322 11.0805 20.0898 12.8544C20.22 13.0234 20.3503 13.1924 20.4805 13.3614C21.9878 11.3998 23.9084 10.6603 26.2422 11.143C28.1128 11.7018 29.4214 12.9483 30.168 14.8827C30.323 15.3701 30.4336 15.863 30.5 16.3616ZM24.6016 13.4037C26.231 13.3577 27.3833 14.1324 28.0586 15.7278C28.4372 16.9018 28.32 18.0146 27.707 19.066C27.4727 19.3759 27.2383 19.6858 27.0039 19.9957C25.1084 22.1448 23.1748 24.2505 21.2031 26.313C20.6794 26.6882 20.1846 26.6459 19.7188 26.1862C18.2302 24.6887 16.7654 23.1604 15.3242 21.6014C14.6587 20.8506 14.0207 20.0759 13.4102 19.2773C12.4999 17.7972 12.4999 16.3182 13.4102 14.8404C14.485 13.5197 15.7936 13.1464 17.3359 13.7206C18.2455 14.1694 18.8901 14.8948 19.2695 15.8968C19.8276 16.612 20.4981 16.7599 21.2812 16.3405C21.4166 16.2364 21.5403 16.1167 21.6523 15.9813C22.0425 14.9255 22.713 14.1578 23.6641 13.6784C23.9751 13.5591 24.2876 13.4676 24.6016 13.4037Z" fill="white" fill-opacity="0.4"></path><path d="M24.6016 13.4037C26.231 13.3577 27.3833 14.1324 28.0586 15.7278C28.4372 16.9018 28.32 18.0146 27.707 19.066L27.0039 19.9957C25.1084 22.1448 23.1748 24.2505 21.2031 26.313C20.6794 26.6882 20.1846 26.6459 19.7188 26.1862C18.2302 24.6887 16.7654 23.1604 15.3242 21.6014C14.6587 20.8506 14.0207 20.0759 13.4102 19.2773C12.4999 17.7972 12.4999 16.3182 13.4102 14.8404C14.485 13.5197 15.7936 13.1464 17.3359 13.7206C18.2455 14.1694 18.8901 14.8948 19.2695 15.8968C19.8276 16.612 20.4981 16.7599 21.2812 16.3405C21.4166 16.2364 21.5403 16.1167 21.6523 15.9813C22.0425 14.9255 22.713 14.1578 23.6641 13.6784C23.9751 13.5591 24.2876 13.4676 24.6016 13.4037Z" fill="white" fill-opacity="0.4"></path></g><defs><filter id="filter0_iiii_10343_55242" x="8.5" y="9" width="24" height="22" filterUnits="userSpaceOnUse" color-interpolation-filters="sRGB"><feFlood flood-opacity="0" result="BackgroundImageFix"></feFlood><feBlend mode="normal" in="SourceGraphic" in2="BackgroundImageFix" result="shape"></feBlend><feColorMatrix in="SourceAlpha" type="matrix" values="0 0 0 0 0 0 0 0 0 0 0 0 0 0 0 0 0 0 127 0" result="hardAlpha"></feColorMatrix><feOffset dy="2"></feOffset><feGaussianBlur stdDeviation="1"></feGaussianBlur><feComposite in2="hardAlpha" operator="arithmetic" k2="-1" k3="1"></feComposite><feColorMatrix type="matrix" values="0 0 0 0 1 0 0 0 0 1 0 0 0 0 1 0 0 0 0.25 0"></feColorMatrix><feBlend mode="normal" in2="shape" result="effect1_innerShadow_10343_55242"></feBlend><feColorMatrix in="SourceAlpha" type="matrix" values="0 0 0 0 0 0 0 0 0 0 0 0 0 0 0 0 0 0 127 0" result="hardAlpha"></feColorMatrix><feOffset dy="-2"></feOffset><feGaussianBlur stdDeviation="1"></feGaussianBlur><feComposite in2="hardAlpha" operator="arithmetic" k2="-1" k3="1"></feComposite><feColorMatrix type="matrix" values="0 0 0 0 1 0 0 0 0 1 0 0 0 0 1 0 0 0 0.25 0"></feColorMatrix><feBlend mode="normal" in2="effect1_innerShadow_10343_55242" result="effect2_innerShadow_10343_55242"></feBlend><feColorMatrix in="SourceAlpha" type="matrix" values="0 0 0 0 0 0 0 0 0 0 0 0 0 0 0 0 0 0 127 0" result="hardAlpha"></feColorMatrix><feOffset dx="-2"></feOffset><feGaussianBlur stdDeviation="1"></feGaussianBlur><feComposite in2="hardAlpha" operator="arithmetic" k2="-1" k3="1"></feComposite><feColorMatrix type="matrix" values="0 0 0 0 0.02 0 0 0 0 0 0 0 0 0 1 0 0 0 0.25 0"></feColorMatrix><feBlend mode="normal" in2="effect2_innerShadow_10343_55242" result="effect3_innerShadow_10343_55242"></feBlend><feColorMatrix in="SourceAlpha" type="matrix" values="0 0 0 0 0 0 0 0 0 0 0 0 0 0 0 0 0 0 127 0" result="hardAlpha"></feColorMatrix><feOffset dx="2"></feOffset><feGaussianBlur stdDeviation="1"></feGaussianBlur><feComposite in2="hardAlpha" operator="arithmetic" k2="-1" k3="1"></feComposite><feColorMatrix type="matrix" values="0 0 0 0 1 0 0 0 0 1 0 0 0 0 1 0 0 0 0.25 0"></feColorMatrix><feBlend mode="normal" in2="effect3_innerShadow_10343_55242" result="effect4_innerShadow_10343_55242"></feBlend></filter><linearGradient id="paint0_linear_10343_55242" x1="21.357" y1="0" x2="21.357" y2="40" gradientUnits="userSpaceOnUse"><stop stop-color="#320548"></stop><stop offset="1" stop-color="#1F073A"></stop></linearGradient></defs></svg>