<svg className="SVGInline-svg SVG-component__content-svg" viewBox="0 0 28 28" fill="none" xmlns="http://www.w3.org/2000/svg">
                              <path opacity="0.927" fill-rule="evenodd" clip-rule="evenodd" d="M12.9135 3.03401C15.0685 2.82516 16.7883 3.57826 18.0732 5.29327C19.2707 7.30272 19.2503 9.29735 18.0121 11.2773C16.2174 13.4382 14.009 13.998 11.387 12.9564C9.1058 11.6401 8.17969 9.67599 8.6087 7.06404C9.06434 5.32624 10.1126 4.09488 11.7533 3.36984C12.1402 3.23005 12.5269 3.1181 12.9135 3.03401ZM13.1578 4.01098C15.535 3.92135 17.0921 5.00011 17.8289 7.24722C18.1823 9.29814 17.4801 10.8756 15.7223 11.9795C13.93 12.8051 12.2813 12.5812 10.7764 11.3078C9.3153 9.68283 9.10159 7.90186 10.1352 5.96494C10.8817 4.90504 11.8892 4.25376 13.1578 4.01098Z" fill="white" stroke="white" stroke-width="1.04211"></path>
                              <path opacity="0.941" fill-rule="evenodd" clip-rule="evenodd" d="M8.63947 15.6562C12.0386 15.646 15.4376 15.6562 18.8367 15.6867C20.6071 15.9309 21.8792 16.857 22.653 18.465C23.4354 20.6559 22.9571 22.5182 21.2181 24.0521C20.6491 24.466 20.0181 24.7509 19.3252 24.9069C15.7446 25.007 12.1623 25.0273 8.57841 24.968C6.28838 24.5505 4.93484 23.197 4.51785 20.9074C4.35399 18.68 5.25974 17.0619 7.23507 16.0531C7.69736 15.8716 8.16552 15.7393 8.63947 15.6562ZM8.94478 16.6331C12.1404 16.6229 15.3359 16.6331 18.5314 16.6637C20.6885 16.9584 21.8487 18.1898 22.0119 20.3579C21.8942 22.2513 20.9172 23.442 19.0809 23.9299C15.6834 24.0297 12.2843 24.05 8.88372 23.991C7.12241 23.7358 6.01312 22.7487 5.55589 21.0295C5.32764 19.1013 6.09091 17.7274 7.84568 16.9079C8.21076 16.776 8.57713 16.6844 8.94478 16.6331Z" fill="white" stroke="white" stroke-width="1.04211"></path>
                            </svg>