<svg xmlns="http://www.w3.org/2000/svg" width="41" height="40" fill="none" viewBox="0 0 41 40" data-sentry-element="WarningAgeIcon" data-sentry-source-file="footer.tsx"><path fill="#fff" d="M11.055 25.883V16.46L8.83 17.828v-2.47l2.224-1.334h2.289v11.859zM19.127 26.13q-1.203 0-2.142-.486a3.8 3.8 0 0 1-1.465-1.35q-.527-.865-.527-1.97 0-.937.42-1.77a3.56 3.56 0 0 1 1.227-1.359l-.05.692q-.6-.584-.947-1.235a3.13 3.13 0 0 1-.338-1.466q0-1.03.486-1.795.495-.766 1.351-1.186.864-.429 1.985-.428 1.12 0 1.976.428a3.23 3.23 0 0 1 1.35 1.186q.495.765.495 1.795 0 .816-.321 1.466-.321.642-.98 1.252v-.692q.782.494 1.202 1.334.428.84.428 1.779 0 1.104-.535 1.968a3.77 3.77 0 0 1-1.474 1.35q-.94.487-2.141.487m0-2.109q.79 0 1.284-.428t.494-1.268q0-.832-.494-1.268-.494-.445-1.284-.445t-1.277.445q-.486.435-.486 1.268 0 .84.486 1.268t1.277.428m0-5.534q.642 0 1.046-.313.403-.32.403-.988t-.403-.988q-.404-.33-1.046-.33t-1.046.33q-.404.32-.404.988t.404.988q.403.313 1.046.313M28.766 23.659v-2.85h-2.85V19.08h2.85v-2.833h1.73v2.833h2.832v1.73h-2.833v2.849z"></path><circle cx="20.424" cy="20" r="18.333" stroke="#fff" stroke-width="3.333"></circle></svg>