<svg class="SVGInline-svg set-language-mobile__arrow-svg" viewBox="0 0 30 30" fill="none" xmlns="http://www.w3.org/2000/svg"><path d="M18.2888 14.5321L13.1667 9.19266C13.0435 9.06422 12.8938 9 12.7178 9C12.5418 9 12.3922 9.06422 12.269 9.19266L11.6881 9.79817C11.5649 9.92661 11.5033 10.0826 11.5033 10.2661C11.4857 10.4495 11.5385 10.6055 11.6617 10.7339L15.7541 15L11.6617 19.2661C11.5385 19.3945 11.4857 19.5505 11.5033 19.7339C11.5033 19.9174 11.5649 20.0734 11.6881 20.2018L12.269 20.8073C12.3922 20.9358 12.5418 21 12.7178 21C12.8938 21 13.0435 20.9358 13.1667 20.8073L18.2888 15.4679C18.4296 15.3394 18.5 15.1835 18.5 15C18.5 14.8165 18.4296 14.6606 18.2888 14.5321Z" fill="white"></path></svg>