<svg class="SVGInline-svg SVG-component__content-svg" viewBox="0 0 30 30" fill="none" xmlns="http://www.w3.org/2000/svg"><path fill-rule="evenodd" clip-rule="evenodd" d="M10.3486 2.5C10.8303 2.5 11.2207 2.89045 11.2207 3.37209V4.82558H18.7789V3.37209C18.7789 2.89045 19.1693 2.5 19.651 2.5C20.1326 2.5 20.5231 2.89045 20.5231 3.37209V4.82613C21.197 4.82805 21.7653 4.83675 22.2457 4.876C22.8813 4.92794 23.4396 5.03766 23.9562 5.30084C24.7766 5.7189 25.4437 6.38596 25.8618 7.20644C26.1249 7.72297 26.2347 8.28127 26.2866 8.9169C26.337 9.53423 26.337 10.2966 26.337 11.2417V21.0839C26.337 22.029 26.337 22.7914 26.2866 23.4087C26.2347 24.0443 26.1249 24.6026 25.8618 25.1191C25.4437 25.9396 24.7766 26.6067 23.9562 27.0247C23.4396 27.2879 22.8813 27.3976 22.2457 27.4496C21.6284 27.5 20.866 27.5 19.9209 27.5H10.0787C9.13358 27.5 8.37125 27.5 7.75391 27.4496C7.11829 27.3976 6.55999 27.2879 6.04345 27.0247C5.22298 26.6067 4.55591 25.9396 4.13786 25.1191C3.87467 24.6026 3.76495 24.0443 3.71302 23.4087C3.66258 22.7913 3.66259 22.029 3.6626 21.0838V11.2417C3.66259 10.2966 3.66258 9.53423 3.71302 8.9169C3.76495 8.28127 3.87467 7.72297 4.13786 7.20644C4.55591 6.38596 5.22298 5.7189 6.04345 5.30084C6.55999 5.03766 7.11829 4.92794 7.75391 4.876C8.23436 4.83675 8.80263 4.82805 9.47655 4.82613V3.37209C9.47655 2.89045 9.867 2.5 10.3486 2.5ZM9.47655 6.5704C8.81437 6.57238 8.30986 6.58058 7.89595 6.6144C7.36818 6.65752 7.06497 6.7379 6.8353 6.85492C6.34301 7.10576 5.94277 7.506 5.69194 7.99828C5.57492 8.22795 5.49453 8.53117 5.45141 9.05893C5.40746 9.59687 5.40678 10.2878 5.40678 11.2791V11.8023H24.5928V11.2791C24.5928 10.2878 24.5922 9.59687 24.5482 9.05893C24.5051 8.53117 24.4247 8.22795 24.3077 7.99828C24.0568 7.506 23.6566 7.10576 23.1643 6.85492C22.9346 6.7379 22.6314 6.65752 22.1037 6.6144C21.6898 6.58058 21.1852 6.57238 20.5231 6.5704V8.02326C20.5231 8.5049 20.1326 8.89535 19.651 8.89535C19.1693 8.89535 18.7789 8.5049 18.7789 8.02326V6.56977H11.2207V8.02326C11.2207 8.5049 10.8303 8.89535 10.3486 8.89535C9.867 8.89535 9.47655 8.5049 9.47655 8.02326V6.5704ZM24.5928 13.5465H5.40678V21.0465C5.40678 22.0377 5.40746 22.7287 5.45141 23.2666C5.49453 23.7944 5.57492 24.0976 5.69194 24.3273C5.94277 24.8196 6.34301 25.2198 6.8353 25.4707C7.06497 25.5877 7.36818 25.6681 7.89595 25.7112C8.43389 25.7551 9.12486 25.7558 10.1161 25.7558H19.8835C20.8748 25.7558 21.5657 25.7551 22.1037 25.7112C22.6314 25.6681 22.9346 25.5877 23.1643 25.4707C23.6566 25.2198 24.0568 24.8196 24.3077 24.3273C24.4247 24.0976 24.5051 23.7944 24.5482 23.2666C24.5922 22.7287 24.5928 22.0377 24.5928 21.0465V13.5465Z" fill="#9533D4"></path><path d="M18.4884 17.093C18.4884 16.7674 18.4884 16.6046 18.5517 16.4802C18.6075 16.3708 18.6964 16.2819 18.8058 16.2261C18.9302 16.1628 19.093 16.1628 19.4186 16.1628H19.8837C20.2093 16.1628 20.3721 16.1628 20.4965 16.2261C20.6059 16.2819 20.6948 16.3708 20.7506 16.4802C20.8139 16.6046 20.8139 16.7674 20.8139 17.093V17.5581C20.8139 17.8837 20.8139 18.0465 20.7506 18.1709C20.6948 18.2803 20.6059 18.3693 20.4965 18.425C20.3721 18.4884 20.2093 18.4884 19.8837 18.4884H19.4186C19.093 18.4884 18.9302 18.4884 18.8058 18.425C18.6964 18.3693 18.6075 18.2803 18.5517 18.1709C18.4884 18.0465 18.4884 17.8837 18.4884 17.5581V17.093Z" fill="#682984"></path><path d="M13.8372 21.7442C13.8372 21.4186 13.8372 21.2558 13.9006 21.1314C13.9563 21.022 14.0452 20.9331 14.1546 20.8773C14.279 20.8139 14.4418 20.8139 14.7674 20.8139H15.2325C15.5582 20.8139 15.721 20.8139 15.8453 20.8773C15.9547 20.9331 16.0437 21.022 16.0994 21.1314C16.1628 21.2558 16.1628 21.4186 16.1628 21.7442V22.2093C16.1628 22.5349 16.1628 22.6977 16.0994 22.8221C16.0437 22.9315 15.9547 23.0204 15.8453 23.0762C15.721 23.1395 15.5582 23.1395 15.2325 23.1395H14.7674C14.4418 23.1395 14.279 23.1395 14.1546 23.0762C14.0452 23.0204 13.9563 22.9315 13.9006 22.8221C13.8372 22.6977 13.8372 22.5349 13.8372 22.2093V21.7442Z" fill="#9533D4"></path><path d="M13.8372 17.093C13.8372 16.7674 13.8372 16.6046 13.9006 16.4802C13.9563 16.3708 14.0452 16.2819 14.1546 16.2261C14.279 16.1628 14.4418 16.1628 14.7674 16.1628H15.2325C15.5582 16.1628 15.721 16.1628 15.8453 16.2261C15.9547 16.2819 16.0437 16.3708 16.0994 16.4802C16.1628 16.6046 16.1628 16.7674 16.1628 17.093V17.5581C16.1628 17.8837 16.1628 18.0465 16.0994 18.1709C16.0437 18.2803 15.9547 18.3693 15.8453 18.425C15.721 18.4884 15.5582 18.4884 15.2325 18.4884H14.7674C14.4418 18.4884 14.279 18.4884 14.1546 18.425C14.0452 18.3693 13.9563 18.2803 13.9006 18.1709C13.8372 18.0465 13.8372 17.8837 13.8372 17.5581V17.093Z" fill="#9533D4"></path><path d="M9.18604 21.7442C9.18604 21.4186 9.18604 21.2558 9.2494 21.1314C9.30514 21.022 9.39409 20.9331 9.50348 20.8773C9.62785 20.8139 9.79066 20.8139 10.1163 20.8139H10.5814C10.907 20.8139 11.0698 20.8139 11.1942 20.8773C11.3036 20.9331 11.3925 21.022 11.4482 21.1314C11.5116 21.2558 11.5116 21.4186 11.5116 21.7442V22.2093C11.5116 22.5349 11.5116 22.6977 11.4482 22.8221C11.3925 22.9315 11.3036 23.0204 11.1942 23.0762C11.0698 23.1395 10.907 23.1395 10.5814 23.1395H10.1163C9.79066 23.1395 9.62785 23.1395 9.50348 23.0762C9.39409 23.0204 9.30514 22.9315 9.2494 22.8221C9.18604 22.6977 9.18604 22.5349 9.18604 22.2093V21.7442Z" fill="#9533D4"></path><path d="M9.18604 17.093C9.18604 16.7674 9.18604 16.6046 9.2494 16.4802C9.30514 16.3708 9.39409 16.2819 9.50348 16.2261C9.62785 16.1628 9.79066 16.1628 10.1163 16.1628H10.5814C10.907 16.1628 11.0698 16.1628 11.1942 16.2261C11.3036 16.2819 11.3925 16.3708 11.4482 16.4802C11.5116 16.6046 11.5116 16.7674 11.5116 17.093V17.5581C11.5116 17.8837 11.5116 18.0465 11.4482 18.1709C11.3925 18.2803 11.3036 18.3693 11.1942 18.425C11.0698 18.4884 10.907 18.4884 10.5814 18.4884H10.1163C9.79066 18.4884 9.62785 18.4884 9.50348 18.425C9.39409 18.3693 9.30514 18.2803 9.2494 18.1709C9.18604 18.0465 9.18604 17.8837 9.18604 17.5581V17.093Z" fill="#9533D4"></path></svg>