<svg className="SVGInline-svg links-menu-side-menu__item-icon-svg" viewBox="0 0 24 24" fill="none" xmlns="http://www.w3.org/2000/svg">
                                                    <path fill-rule="evenodd" clip-rule="evenodd" d="M14.2117 5.42536C13.9308 5.41082 13.3764 5.32501 12.9798 5.23463C12.4256 5.10832 12.064 5.06571 11.4174 5.05045C10.9547 5.03951 10.5086 5.04271 10.4259 5.05749C10.3433 5.07227 10.0383 5.13975 9.74809 5.20735C9.24518 5.32453 9.20641 5.32562 8.91953 5.23037C8.67941 5.15057 8.44607 5.13494 7.76457 5.15309C7.01048 5.17316 6.8754 5.19287 6.6101 5.32165C6.44484 5.40181 6.16091 5.61718 5.97914 5.80022L5.64863 6.13306L4.92753 6.13961C4.47534 6.14375 4.04328 6.18493 3.7689 6.25007C3.42764 6.33101 3.29022 6.33948 3.14401 6.28852C3.04096 6.25258 2.65071 6.2232 2.27676 6.2232C1.73815 6.2232 1.52843 6.24885 1.26709 6.34662C1.08501 6.4147 0.799829 6.59355 0.630551 6.74576C0.461873 6.89744 0.251013 7.15961 0.161957 7.32841L0 7.63535V9.64842C0 11.6392 0.00157087 11.6644 0.139481 11.9228C0.216219 12.0666 0.384116 12.2983 0.512652 12.4377C0.641128 12.5772 0.899158 12.766 1.08592 12.8575C1.32196 12.9731 1.55807 13.0339 1.85979 13.0567L2.29401 13.0895L2.20669 13.337C2.15862 13.4731 2.08308 13.7331 2.03873 13.9149C1.99445 14.0967 1.92606 14.5883 1.88682 15.0074C1.83082 15.606 1.83149 15.8503 1.88984 16.1471C1.9307 16.3549 2.02797 16.6508 2.10597 16.8047C2.18391 16.9586 2.37141 17.1934 2.52248 17.3264C2.67361 17.4594 2.89282 17.6136 3.0097 17.669C3.12658 17.7245 3.4 17.7975 3.61735 17.8314C3.84612 17.867 4.63512 17.8818 5.49155 17.8665C6.51978 17.8482 7.03476 17.8158 7.18097 17.7602C7.29664 17.7162 7.49327 17.6132 7.61785 17.5314C7.74248 17.4496 7.85172 17.3934 7.86061 17.4065C7.86951 17.4196 7.94323 17.5767 8.02441 17.7555C8.10566 17.9344 8.28149 18.1933 8.41526 18.3309C8.54896 18.4685 8.81943 18.6601 9.01635 18.7568L9.37432 18.9326L11.4671 18.9505C13.2089 18.9654 13.6131 18.953 13.8771 18.8763C14.0514 18.8255 14.3303 18.6833 14.4967 18.5603C14.663 18.4372 14.8826 18.2137 14.9846 18.0636C15.0866 17.9136 15.2015 17.6962 15.2399 17.5805C15.2783 17.4648 15.3292 17.3484 15.353 17.3218C15.3768 17.2951 15.4778 17.3419 15.5774 17.4257C15.677 17.5095 15.8905 17.639 16.0518 17.7134C16.3351 17.8441 16.4061 17.8487 18.1477 17.8498L19.9505 17.8509L20.281 17.6947C20.4628 17.6088 20.7291 17.4236 20.8728 17.2834C21.0165 17.1431 21.2053 16.8754 21.2923 16.6884C21.4348 16.3824 21.4544 16.253 21.4897 15.3872C21.5184 14.6843 21.5641 14.2977 21.6596 13.95C21.7314 13.6884 21.8594 13.3098 21.944 13.1087C22.0285 12.9077 22.2061 12.5268 22.3385 12.2624C22.471 11.998 22.8027 11.3884 23.0757 10.9076C23.3486 10.4269 23.6608 9.85905 23.7694 9.64572C23.9311 9.32814 23.9716 9.17069 23.9926 8.77709C24.0134 8.38818 23.9937 8.23116 23.8895 7.95486C23.8028 7.72507 23.6151 7.4469 23.3157 7.10438C22.9819 6.72262 22.7837 6.55268 22.5223 6.42432C22.2475 6.28936 22.0723 6.24891 21.6931 6.23269C21.3148 6.21652 21.142 6.23894 20.8819 6.33785C20.7001 6.40695 20.442 6.46351 20.3082 6.46351C20.1744 6.46357 19.821 6.41032 19.5228 6.34524C19.2246 6.2801 18.7174 6.19586 18.3958 6.15788L17.811 6.08896L17.4986 5.77751C17.3268 5.60625 17.0636 5.40705 16.9137 5.33476C16.7639 5.26253 16.4965 5.17598 16.3197 5.14245C16.1148 5.10357 15.8757 5.10141 15.6608 5.13644C15.4752 5.16673 15.1882 5.25008 15.0229 5.32165C14.7703 5.43114 14.6412 5.4476 14.2117 5.42536ZM10.5461 6.74298C10.4304 6.75837 10.1465 6.82651 9.91514 6.89429C9.68379 6.96214 9.32175 7.0958 9.11064 7.19128C8.89948 7.28683 8.71699 7.36494 8.70503 7.36494C8.69307 7.36494 8.68327 7.28536 8.68327 7.18808C8.68327 7.07342 8.63628 6.9783 8.54969 6.91766C8.45234 6.8494 8.26641 6.82411 7.86301 6.82411C7.33703 6.82411 7.30374 6.83187 7.18536 6.98246C7.06536 7.13497 7.06078 7.20979 7.06078 9.02221C7.06078 10.8969 7.06127 10.9042 7.19852 11.0637C7.32958 11.2161 7.36323 11.2238 7.89006 11.2213C8.1946 11.2198 8.49494 11.2024 8.55743 11.1826C8.62329 11.1616 8.72701 11.0085 8.80423 10.8182C8.87754 10.6377 9.0268 10.4116 9.13599 10.3157C9.2492 10.2163 9.44047 10.1234 9.58097 10.0997C9.71647 10.0768 9.96881 10.0772 10.1416 10.1004C10.3145 10.1237 10.6858 10.194 10.9668 10.2566C11.2477 10.3192 11.7344 10.3872 12.0484 10.4078C12.483 10.4362 12.712 10.4213 13.0077 10.3452C13.2214 10.2902 13.5161 10.1781 13.6628 10.0962C13.8095 10.0142 13.9391 9.95669 13.9508 9.96841C13.9625 9.98006 13.8158 10.1757 13.6248 10.4032C13.4338 10.6306 13.0592 10.9933 12.7925 11.2091C12.5257 11.4248 12.0802 11.7636 11.8024 11.9619C11.5246 12.1602 11.0809 12.5389 10.8165 12.8035C10.4946 13.1255 10.2634 13.4234 10.1166 13.7049C9.99604 13.9361 9.85259 14.2591 9.79779 14.4226C9.74298 14.5861 9.65861 14.9078 9.61035 15.1374C9.56204 15.3671 9.51776 15.8926 9.51199 16.3054C9.50189 17.0226 9.5076 17.0609 9.63986 17.168C9.76803 17.2718 9.91161 17.28 11.591 17.28C13.1345 17.28 13.4236 17.2662 13.5373 17.1865C13.6628 17.0986 13.6709 17.0486 13.672 16.3602C13.6726 15.9573 13.7121 15.3571 13.7598 15.0266C13.8075 14.6961 13.9022 14.2154 13.9703 13.9585C14.0383 13.7016 14.1369 13.3636 14.1894 13.2073C14.2419 13.0512 14.352 12.7612 14.4341 12.5629C14.5161 12.3646 14.7216 11.9184 14.8908 11.5713C15.0599 11.2243 15.5199 10.3725 15.913 9.67846C16.3062 8.98441 16.6931 8.28801 16.773 8.13093C16.8683 7.94326 16.9053 7.79459 16.8809 7.69736C16.8605 7.61594 16.6737 7.36896 16.4658 7.14842C16.156 6.81978 16.0622 6.75339 15.946 6.78025C15.868 6.79827 15.6148 6.88252 15.3835 6.96749C15.0364 7.09501 14.8578 7.12211 14.3619 7.12229C13.9097 7.12253 13.5602 7.07739 12.9498 6.93996C12.3766 6.81095 11.9357 6.75111 11.4475 6.7362C11.0674 6.72455 10.6618 6.7276 10.5461 6.74298ZM3.45516 8.11434C3.66993 8.02546 4.02148 7.91773 4.23636 7.87482C4.45125 7.83198 4.73524 7.79471 4.86744 7.79207C4.99964 7.78936 5.16862 7.80354 5.24301 7.82343L5.37822 7.85967V9.2976V10.7355L5.15288 10.696C5.02897 10.6742 4.74323 10.6189 4.51801 10.5731C4.29272 10.5272 3.96354 10.4897 3.78645 10.4897C3.53142 10.4897 3.4277 10.5206 3.28739 10.6387C3.19004 10.7207 3.07533 10.8761 3.03254 10.9843C2.98976 11.0923 2.91446 11.228 2.86518 11.2859C2.79463 11.3688 2.67998 11.3911 2.32399 11.3911C1.98802 11.3911 1.84418 11.3656 1.76245 11.2916C1.66132 11.2001 1.65253 11.0668 1.65253 9.62106C1.65253 8.47921 1.67223 8.03027 1.72463 7.97787C1.76784 7.93467 1.97667 7.90576 2.2457 7.90576C2.57915 7.90576 2.72294 7.93136 2.80455 8.00521C2.865 8.0599 2.91445 8.15742 2.91445 8.22196C2.91445 8.29263 2.94432 8.32664 2.98957 8.30759C3.03091 8.29016 3.24039 8.20322 3.45516 8.11434ZM18.5383 8.11471C18.5383 8.23964 18.4592 8.50493 18.3601 8.71266C18.2621 8.918 18.0054 9.39508 17.7896 9.77287C17.5738 10.1506 17.397 10.4789 17.3969 10.5024C17.3967 10.5259 17.498 10.5717 17.6219 10.604C17.7459 10.6364 18.0508 10.6904 18.2996 10.724C18.6514 10.7716 18.8432 10.7661 19.1632 10.6992C19.3895 10.6518 19.6693 10.5572 19.7851 10.4889C19.9009 10.4205 20.0079 10.3769 20.0229 10.3919C20.0379 10.4069 19.853 10.6268 19.6119 10.8805C19.3709 11.1343 18.9564 11.5027 18.6908 11.6991C18.4251 11.8955 18.1672 12.0892 18.1177 12.1294C18.0681 12.1696 17.8968 12.309 17.737 12.4392C17.5771 12.5693 17.3316 12.8398 17.1913 13.04C17.051 13.2403 16.8798 13.5393 16.811 13.7046C16.7422 13.8698 16.643 14.2135 16.5905 14.4682C16.5381 14.723 16.4952 15.1744 16.4952 15.4713C16.4952 15.9612 16.5076 16.02 16.6288 16.1048C16.7403 16.183 16.9911 16.1984 18.1477 16.1984C19.3044 16.1984 19.5552 16.183 19.6667 16.1048C19.7903 16.0183 19.8003 15.9642 19.8003 15.3802C19.8003 15.0332 19.8295 14.5547 19.8653 14.317C19.9011 14.0793 19.9928 13.6685 20.069 13.4041C20.1452 13.1397 20.2913 12.7139 20.3938 12.4579C20.4962 12.2018 20.7013 11.7556 20.8495 11.4664C20.9976 11.1771 21.2164 10.7646 21.3357 10.5498C21.4549 10.335 21.7261 9.85964 21.9383 9.4935C22.1505 9.12736 22.3241 8.75846 22.3241 8.67373C22.3241 8.5753 22.2244 8.40884 22.0481 8.21271C21.8476 7.98971 21.7285 7.90576 21.6124 7.90582C21.5246 7.90582 21.3062 7.96152 21.127 8.02961C20.8989 8.11638 20.6648 8.15274 20.3458 8.15118C20.0953 8.14992 19.7011 8.10612 19.4697 8.05384C19.2384 8.0015 18.9342 7.94331 18.7937 7.92445L18.5383 7.89014V8.11471ZM4.66458 12.5526C4.80922 12.4147 5.07554 12.1916 5.25641 12.0568C5.43729 11.9221 5.59953 11.8121 5.61696 11.8124C5.63439 11.8128 5.70746 11.904 5.77933 12.0151C5.8512 12.1261 6.03226 12.3171 6.18165 12.4395C6.33098 12.5618 6.59022 12.714 6.75763 12.7777C6.92511 12.8413 7.11222 12.8934 7.17351 12.8934C7.28204 12.8934 7.28204 12.9024 7.17423 13.2291C7.1133 13.4138 7.01986 13.7721 6.9665 14.0253C6.91314 14.2786 6.86399 14.8103 6.8572 15.2069C6.85035 15.6093 6.81482 15.9811 6.77684 16.0482C6.712 16.1626 6.63882 16.169 5.25761 16.1815L3.80651 16.1945L3.66093 16.0489C3.54693 15.9349 3.51562 15.841 3.51653 15.6152C3.51719 15.4567 3.55479 15.0702 3.60016 14.7562C3.64553 14.4422 3.74054 14.0326 3.81133 13.8461C3.88206 13.6595 4.04382 13.3485 4.1708 13.155C4.29777 12.9615 4.51999 12.6904 4.66458 12.5526Z" fill="white"></path>
                                                </svg>