<svg class="SVGInline-svg SVG-component__content-svg" viewBox="0 0 10 8" fill="none" xmlns="http://www.w3.org/2000/svg"><path fill-rule="evenodd" clip-rule="evenodd" d="M9.66099 2.24593C9.77362 2.11811 9.86146 1.96794 9.91952 1.80401C9.97757 1.64008 10.0047 1.4656 9.99934 1.29052C9.99398 1.11545 9.95625 0.943206 9.8883 0.783635C9.82035 0.624065 9.72352 0.480291 9.60332 0.36052C9.48312 0.24075 9.34192 0.147328 9.18777 0.085591C9.03363 0.023854 8.86955 -0.00499025 8.70493 0.000705319C8.5403 0.00640089 8.37833 0.0465256 8.22829 0.118787C8.07824 0.191048 7.94305 0.29403 7.83042 0.421856L3.96491 4.80871L2.05534 3.00463C1.80515 2.78345 1.48392 2.67435 1.15949 2.70038C0.835062 2.72641 0.532853 2.88553 0.316703 3.14413C0.100553 3.40273 -0.0126103 3.74056 0.00111772 4.08625C0.0148458 4.43194 0.154391 4.75842 0.390274 4.99672L3.21136 7.6635C3.45546 7.89409 3.77452 8.01432 4.10068 7.99864C4.42685 7.98295 4.7344 7.83258 4.95793 7.57949L9.66099 2.24593Z" fill="#FFBC0F"></path></svg>