<svg class="SVGInline-svg SVG-component__content-svg" xmlns="http://www.w3.org/2000/svg" viewBox="0 0 20 20" fill="none"><path d="M13.2888 9.53211L8.16667 4.19266C8.04345 4.06422 7.89384 4 7.71782 4C7.5418 4 7.39219 4.06422 7.26898 4.19266L6.68812 4.79817C6.56491 4.92661 6.5033 5.08257 6.5033 5.26605C6.4857 5.44954 6.5385 5.6055 6.66172 5.73394L10.7541 10L6.66172 14.2661C6.5385 14.3945 6.4857 14.5505 6.5033 14.7339C6.5033 14.9174 6.56491 15.0734 6.68812 15.2018L7.26898 15.8073C7.39219 15.9358 7.5418 16 7.71782 16C7.89384 16 8.04345 15.9358 8.16667 15.8073L13.2888 10.4679C13.4296 10.3394 13.5 10.1835 13.5 10C13.5 9.81651 13.4296 9.66055 13.2888 9.53211Z" fill="white"></path></svg>