<svg class="SVGInline-svg back-block__arrow-svg" viewBox="0 0 30 31" fill="none" xmlns="http://www.w3.org/2000/svg"><path d="M11.7112 15.9679L16.8333 21.3073C16.9565 21.4358 17.1062 21.5 17.2822 21.5C17.4582 21.5 17.6078 21.4358 17.731 21.3073L18.3119 20.7018C18.4351 20.5734 18.4967 20.4174 18.4967 20.2339C18.5143 20.0505 18.4615 19.8945 18.3383 19.7661L14.2459 15.5L18.3383 11.2339C18.4615 11.1055 18.5143 10.9495 18.4967 10.7661C18.4967 10.5826 18.4351 10.4266 18.3119 10.2982L17.731 9.69266C17.6078 9.56422 17.4582 9.5 17.2822 9.5C17.1062 9.5 16.9565 9.56422 16.8333 9.69266L11.7112 15.0321C11.5704 15.1606 11.5 15.3165 11.5 15.5C11.5 15.6835 11.5704 15.8395 11.7112 15.9679Z" fill="white"></path></svg>