<svg class="SVGInline-svg SVG-component__content-svg" viewBox="0 0 30 30" fill="none" xmlns="http://www.w3.org/2000/svg"><path d="M14.5321 11.7112L9.19266 16.8333C9.06422 16.9565 9 17.1062 9 17.2822C9 17.4582 9.06422 17.6078 9.19266 17.731L9.79817 18.3119C9.92661 18.4351 10.0826 18.4967 10.2661 18.4967C10.4495 18.5143 10.6055 18.4615 10.7339 18.3383L15 14.2459L19.2661 18.3383C19.3945 18.4615 19.5505 18.5143 19.7339 18.4967C19.9174 18.4967 20.0734 18.4351 20.2018 18.3119L20.8073 17.731C20.9358 17.6078 21 17.4582 21 17.2822C21 17.1062 20.9358 16.9565 20.8073 16.8333L15.4679 11.7112C15.3394 11.5704 15.1835 11.5 15 11.5C14.8165 11.5 14.6606 11.5704 14.5321 11.7112Z" fill="#9583A0"></path></svg>