<svg className="SVGInline-svg SVG-component__content-svg" viewBox="0 0 27 28" fill="none" xmlns="http://www.w3.org/2000/svg">
                              <g clip-path="url(#clip0_10423_34573)">
                                <path d="M20.7652 5.5C21.3542 5.5 21.919 5.73396 22.3355 6.15041C22.7519 6.56687 22.9859 7.1317 22.9859 7.72065V10.2389C23.3234 10.4338 23.6038 10.7141 23.7987 11.0517C23.9936 11.3892 24.0962 11.7722 24.0962 12.162V16.6033C24.0962 16.9931 23.9936 17.376 23.7987 17.7136C23.6038 18.0511 23.3234 18.3314 22.9859 18.5263V21.0446C22.9859 21.6335 22.7519 22.1983 22.3355 22.6148C21.919 23.0313 21.3542 23.2652 20.7652 23.2652H5.22065C4.6317 23.2652 4.06687 23.0313 3.65041 22.6148C3.23396 22.1983 3 21.6335 3 21.0446V7.72065C3 7.1317 3.23396 6.56687 3.65041 6.15041C4.06687 5.73396 4.6317 5.5 5.22065 5.5H20.7652ZM20.7652 7.72065H5.22065V21.0446H20.7652V18.8239H16.3239C15.1652 18.8239 14.0524 18.3711 13.2229 17.5621C12.3934 16.7531 11.9129 15.652 11.8839 14.4937C11.855 13.3354 12.2798 12.2116 13.0678 11.3621C13.8558 10.5126 14.9446 10.0048 16.1018 9.94686L16.3239 9.9413H20.7652V7.72065ZM21.8755 12.162H16.3239C15.735 12.162 15.1701 12.3959 14.7537 12.8124C14.3372 13.2288 14.1033 13.7937 14.1033 14.3826C14.1033 14.9716 14.3372 15.5364 14.7537 15.9528C15.1701 16.3693 15.735 16.6033 16.3239 16.6033H21.8755V12.162ZM17.4342 13.2723C17.7287 13.2723 18.0111 13.3893 18.2194 13.5975C18.4276 13.8057 18.5446 14.0881 18.5446 14.3826C18.5446 14.6771 18.4276 14.9595 18.2194 15.1677C18.0111 15.376 17.7287 15.4929 17.4342 15.4929C17.1398 15.4929 16.8573 15.376 16.6491 15.1677C16.4409 14.9595 16.3239 14.6771 16.3239 14.3826C16.3239 14.0881 16.4409 13.8057 16.6491 13.5975C16.8573 13.3893 17.1398 13.2723 17.4342 13.2723Z" fill="#9583A0"></path>
                              </g>
                              <defs>
                                <clipPath id="clip0_10423_34573">
                                  <rect width="21" height="18" fill="white" transform="translate(3 5.5)"></rect>
                                </clipPath>
                              </defs>
                            </svg>