<svg class="SVGInline-svg links-menu-side-menu__item-icon-svg" viewBox="0 0 24 24" fill="none" xmlns="http://www.w3.org/2000/svg"><path d="M11.1023 9.93942C11.9386 9.21822 12.7962 8.52204 13.6738 7.85181C14.6823 8.13675 15.6734 8.48023 16.642 8.88051C16.228 7.98985 15.75 7.13039 15.2118 6.30892C15.4769 5.91589 15.7488 5.52738 16.0272 5.14366L16.003 5.13691C15.3057 4.94399 14.53 4.81513 13.6992 4.75856C13.1021 4.34932 12.5315 4.04161 12.004 3.84113C11.7954 4.11434 11.5792 4.49806 11.3487 4.98907C10.4356 5.23529 9.5454 5.55979 8.68796 5.95904C9.38313 6.17115 10.1591 6.47686 11.0021 6.8689C11.0184 7.67931 11.0455 8.57275 11.0851 9.53512C11.0906 9.66854 11.0964 9.80336 11.1023 9.93942Z" fill="white"></path><path d="M19.0002 7.26654C18.687 7.19175 18.2664 7.17555 17.7438 7.21015L17.7438 7.20912C17.729 6.59941 17.6555 6.09256 17.5254 5.6989C17.1754 5.36406 16.8016 5.05544 16.4072 4.77548C17.4752 5.42833 18.3872 6.31134 19.0741 7.35557C19.0497 7.32572 19.0251 7.29604 19.0002 7.26654Z" fill="white"></path><path d="M5.10167 15.6298C5.12661 16.2322 5.22289 16.75 5.38375 17.1686L5.38268 17.1695C5.83598 17.7548 6.35264 18.2879 6.92321 18.7593C6.89813 18.744 6.87335 18.7287 6.84874 18.7134C5.77673 17.8896 4.90768 16.8148 4.32946 15.5768C4.49855 15.6302 4.75738 15.6425 5.10167 15.6298Z" fill="white"></path><path d="M15.1461 19.5823C15.6047 19.1674 16.0637 18.6234 16.5061 17.9656C16.703 18.3226 16.8403 18.5898 16.9224 18.7789C17.1233 18.6718 17.318 18.5536 17.5059 18.425L17.4905 18.4387C17.2512 18.643 17.0002 18.8342 16.7389 19.0112C16.5477 19.1407 16.351 19.2625 16.1491 19.3763C15.3966 19.8005 14.5727 20.1129 13.6999 20.2909C13.3979 20.2898 13.0963 20.2617 12.7988 20.2065C13.5936 20.0867 14.3861 19.8759 15.1461 19.5823Z" fill="white"></path><path d="M13.0242 15.6285C13.1573 14.5896 13.275 13.472 13.373 12.3053C12.4096 12.9518 11.4348 13.5811 10.4489 14.1927C9.44127 13.7651 8.44974 13.3003 7.47639 12.7993C7.7456 13.8321 8.07297 14.8489 8.45693 15.8447C8.03717 16.334 7.61523 16.8215 7.19112 17.3071C7.95819 17.5662 8.815 17.7693 9.73322 17.9078C10.2809 18.4937 10.8114 18.9732 11.3144 19.3331C11.6235 18.9553 11.9552 18.4583 12.311 17.8479C13.2827 17.6592 14.2384 17.3955 15.1696 17.0593C14.4351 16.6114 13.7191 16.1339 13.0232 15.628L13.0242 15.6285Z" fill="white"></path><path d="M20.3014 12.2673C20.3509 11.7521 20.3569 11.2551 20.3234 10.7832C20.3043 10.6565 20.2822 10.5302 20.2572 10.4045C20.1722 10.5227 20.0178 10.6522 19.8025 10.8008C19.4838 10.2368 19.0569 9.64961 18.5319 9.05758C18.7108 9.94614 18.8129 10.8485 18.8369 11.7546C18.3575 12.3295 17.7659 12.9365 17.0744 13.5624C17.8072 13.7799 18.4262 13.9615 18.9346 14.1091C18.9752 14.8533 18.9456 15.5237 18.8476 16.1057C19.2577 15.4669 19.6023 14.7883 19.8763 14.0804C19.9992 14.0177 20.1776 13.866 20.2748 13.7769C20.3514 13.4185 20.4052 13.0517 20.4349 12.6781C20.4201 12.6264 20.4008 12.5786 20.3813 12.5301C20.3495 12.4511 20.3169 12.3702 20.3014 12.2673Z" fill="white"></path><path d="M6.25376 6.14345C6.37357 5.88505 6.5013 5.65562 6.63472 5.4568C6.39197 5.65611 6.16051 5.86863 5.94144 6.09327C6.02971 6.09421 6.13471 6.11185 6.25376 6.14345Z" fill="white"></path><path d="M11.0053 19.9891C10.4559 20.0955 9.959 20.1292 9.53229 20.0961C10.0935 20.267 10.6794 20.3811 11.2833 20.4317C11.1878 20.3337 11.0951 20.1828 11.0053 19.9891Z" fill="white"></path><path d="M7.70873 11.0854C6.87509 11.2664 6.04659 11.4705 5.22419 11.6972C4.97789 12.5621 4.82798 13.3772 4.77933 14.1156C4.4139 13.3254 4.1455 12.5349 3.98218 11.7742C3.79488 11.717 3.64832 11.6642 3.5474 11.6098C3.56563 11.2083 3.61183 10.8141 3.68412 10.4291C3.75593 10.0466 3.85349 9.67315 3.97492 9.31065C4.11358 8.89672 4.28338 8.49706 4.48152 8.11442C4.61695 8.1709 4.7518 8.22878 4.88606 8.28799C5.40676 7.71244 6.04403 7.14816 6.77808 6.61767C6.42529 7.37021 6.12848 8.22439 5.90027 9.15149C6.38555 9.73286 6.99162 10.3798 7.70873 11.0854Z" fill="white"></path><path fill-rule="evenodd" clip-rule="evenodd" d="M1 12.0003C1 5.92471 5.92472 1 11.9997 1C18.0753 1 23 5.92525 23 12.0003C23 18.0753 18.0753 23 11.9997 23C5.92472 23 1 18.0753 1 12.0003ZM2.53391 12.0003C2.53391 17.2199 6.78013 21.4661 11.9997 21.4661C17.2199 21.4661 21.4661 17.2199 21.4661 12.0003C21.4661 6.78068 17.2193 2.53389 11.9997 2.53389C6.78013 2.53389 2.53391 6.78068 2.53391 12.0003Z" fill="white"></path></svg>