<svg class="SVGInline-svg SVG-component__content-svg" xmlns="http://www.w3.org/2000/svg" viewBox="0 0 141 115" fill="none"><g opacity="0.4" filter="url(#filter0_f_14095_57685)"><path fill-rule="evenodd" clip-rule="evenodd" d="M19.9824 82.5634V88.5675L23.9361 88.5662C26.1107 88.5655 28.4959 88.4954 29.2367 88.4105C29.9955 88.3236 31.0222 88.0807 31.5879 87.8543C32.2083 87.6058 32.9099 87.1618 33.4233 86.6927C33.9476 86.2134 34.4299 85.5762 34.7307 84.9654C35.1412 84.1315 35.2071 83.8306 35.2071 82.7893C35.2071 81.9289 35.1121 81.327 34.877 80.6989C34.6739 80.1559 34.2481 79.4897 33.7697 78.9662C33.3422 78.4985 32.6883 77.9374 32.3164 77.7196C31.9447 77.5017 31.2111 77.182 30.6863 77.0091C29.8274 76.7262 29.2459 76.6879 24.8573 76.6271L19.9824 76.5596V82.5634ZM37.6395 82.5842V88.577L39.5203 88.5338L41.4012 88.4907L41.4471 83.3471C41.4723 80.5181 41.45 77.8407 41.3977 77.3974L41.3023 76.5914H39.4709H37.6395V82.5842ZM49.6421 76.7564C49.1078 76.8257 48.4169 76.9645 48.1068 77.0647C47.7966 77.165 47.2769 77.3809 46.9518 77.5442C46.6266 77.7077 46.047 78.1303 45.6635 78.4831C45.2801 78.836 44.8138 79.3666 44.6275 79.6621C44.4413 79.9577 44.2019 80.4642 44.0957 80.7877C43.9894 81.1113 43.9061 81.9166 43.9105 82.5773C43.917 83.566 43.9971 83.951 44.3638 84.7528C44.6602 85.4015 45.09 85.9906 45.6498 86.5162C46.1123 86.9501 46.7619 87.4434 47.0934 87.6123C47.425 87.7812 48.0764 88.04 48.5408 88.1876C49.2463 88.4118 50.1875 88.4678 54.2602 88.5289H59.1351V82.1188H55.4501V85.5341H51.461C50.5397 85.5341 49.8281 85.3965 49.036 84.9643C48.574 84.7122 48.0865 84.2967 47.9013 83.997C47.6865 83.6494 47.5727 83.202 47.5652 82.674C47.5574 82.1354 47.654 81.7044 47.8626 81.3471C48.0326 81.0561 48.4679 80.6096 48.8298 80.3552C50.0024 79.6621 51.461 79.8157 51.461 79.8157H59.102V76.5914H52.3055C51.6145 76.5914 50.1765 76.687 49.6421 76.7564ZM61.5917 82.5794V88.5675H63.4342H65.2766V82.5794V76.5914H63.4342H61.5917V82.5794ZM67.7333 78.2035V79.8157H69.8828H72.0324V84.1916V88.5675H73.8749H75.7173V84.1957V79.8241L77.9053 79.7814L80.0932 79.7389L80.137 78.1651L80.1807 76.5914H73.957H67.7333V78.2035ZM87.4869 76.8083C87.1624 76.9279 86.7238 77.1871 86.5124 77.3844C86.3011 77.5815 84.4341 80.0904 82.3633 82.9594C80.2927 85.8286 78.295 88.4598 78.2537 88.5675C78.2537 88.5675 78.9147 88.5675 80.5758 88.5671L82.7034 88.567L85.4671 84.6537C86.9872 82.5016 88.2654 80.7415 88.3076 80.7426C88.3498 80.7438 88.7816 81.3244 89.2672 82.0328C89.7529 82.7412 90.2298 83.4512 90.2298 83.5006C90.2298 83.5501 89.6386 83.5006 89.0134 83.5006H87.8768L86.9273 84.8281C86.4049 85.5584 85.6675 86.4572 85.6236 86.5714C85.6236 86.5714 86.4049 86.5714 89.1078 86.5714H92.3974L93.1154 87.5694L93.8333 88.5675H96.0015H98.1695L97.894 88.1452C97.7425 87.9131 97.3373 87.3292 96.9935 86.8478C96.6497 86.3665 95.0217 84.0591 93.3758 81.7203C91.4138 78.9325 90.1977 77.3458 89.8444 77.1132C89.548 76.9179 89.0292 76.7206 88.6914 76.6746C88.3325 76.6257 87.8321 76.6813 87.4869 76.8083ZM100.437 82.5794V88.5675H102.28H104.122V82.5794V76.5914H102.28H100.437V82.5794ZM107.546 76.8923C107.276 77.057 106.947 77.3988 106.817 77.6517C106.616 78.0405 106.579 78.9198 106.579 83.3394V88.5675H108.175C109.552 88.5675 109.96 88.5675 109.96 88.5675C109.96 88.5675 109.966 86.649 109.954 84.9597C109.943 83.2705 109.938 81.8341 109.945 81.7676C109.951 81.7013 110.492 82.1099 111.147 82.6757C111.801 83.2416 112.786 84.0993 113.335 84.5817C113.883 85.064 115.058 86.0893 115.945 86.8599C116.876 87.6696 117.794 88.3342 118.119 88.4345C118.428 88.5297 118.871 88.5601 119.103 88.5017C119.335 88.4435 119.749 88.1716 120.023 87.8977C120.419 87.5017 120.542 87.2278 120.62 86.5633C120.675 86.1033 120.699 83.6887 120.674 81.1975L120.62 76.5811H117.332L117.291 79.972L117.25 83.3631L116.405 82.6477C115.941 82.2544 115.215 81.6384 114.793 81.2789C114.371 80.9196 113.058 79.8111 111.876 78.8157C110.694 77.8203 109.504 76.9127 109.232 76.7986C108.961 76.6847 108.581 76.5917 108.388 76.592C108.195 76.5923 107.816 76.7274 107.546 76.8923ZM29.8857 80.0775C30.2235 80.2557 30.6955 80.6076 30.9344 80.8593C31.1735 81.1109 31.4282 81.5794 31.5005 81.9003C31.573 82.2212 31.592 82.6953 31.543 82.9539C31.4941 83.2123 31.3617 83.6078 31.2487 83.8326C31.1359 84.0574 30.852 84.3918 30.6181 84.5759C30.3841 84.7598 29.9599 85.0078 29.6751 85.1268C29.2952 85.2855 28.4263 85.3431 26.4124 85.3431H23.6674V82.4857V79.6285L26.4695 79.6907C28.9527 79.746 29.3414 79.79 29.8857 80.0775Z" fill="white"></path><path d="M64.8025 27.0875C65.9528 26.8216 67.2972 26.5456 67.7901 26.4742C68.2831 26.4025 69.8964 26.4064 71.3753 26.4829C72.8542 26.5593 74.6178 26.7458 75.2948 26.8972C75.9715 27.0487 76.9081 27.3182 77.376 27.496C78.0554 27.7544 78.1384 27.8754 77.7886 28.0965C77.5478 28.2488 76.3422 28.38 75.1098 28.3875C73.8774 28.3952 71.4575 28.5948 69.7321 28.8308C68.0067 29.0669 65.2058 29.2643 63.508 29.2694C61.1693 29.2766 60.4501 29.1885 60.5419 28.9055C60.6085 28.7003 61.1238 28.3158 61.687 28.0517C62.2502 27.7873 63.6523 27.3534 64.8025 27.0875Z" fill="white"></path><path d="M76.9024 29.642C76.9024 29.5057 77.2723 29.2422 77.724 29.0564C78.1758 28.8706 79.0568 28.78 79.6815 28.8553C80.3062 28.9306 81.3146 29.3106 81.9222 29.7002C82.5299 30.0895 83.8675 31.2165 84.8943 32.2045C86.0004 33.2687 86.7616 34.2522 86.7616 34.617C86.7616 34.9561 86.5017 35.3723 86.1838 35.5425C85.8659 35.7125 84.8686 35.8518 83.9676 35.8518C83.0662 35.8518 82.1176 35.7705 81.8592 35.6716C81.6008 35.5724 80.8915 34.7992 80.2832 33.9537C79.6746 33.1079 78.6651 31.8477 78.0398 31.1528C77.4142 30.4582 76.9024 29.7785 76.9024 29.642Z" fill="white"></path><path d="M63.7096 30.7166C65.7654 30.9162 67.3683 30.8911 69.284 30.6288C70.7628 30.4262 72.3469 30.2413 72.804 30.218C73.2611 30.1944 74.0678 30.3596 74.5966 30.5849C75.1254 30.8101 75.8382 31.3145 76.1806 31.7052C76.523 32.0963 77.1615 33.0449 77.5997 33.8136C78.0377 34.5823 78.3962 35.4852 78.3962 35.8198C78.3962 36.1544 78.1611 36.5503 77.8734 36.6994C77.5857 36.8481 75.6814 37.2748 73.6411 37.6467C70.4348 38.2317 69.3604 38.2971 65.7239 38.1295C62.433 37.9778 61.1579 38.033 59.8729 38.3838C58.9692 38.6306 57.8004 38.834 57.2758 38.8358C56.6257 38.8382 56.1733 38.6276 55.8566 38.1753C55.6009 37.8102 55.3915 37.2297 55.3915 36.8852C55.3915 36.5407 55.5967 35.5682 55.8474 34.7239C56.1001 33.8728 56.7353 32.7309 57.2737 32.16C57.8581 31.5406 58.7579 30.9927 59.5344 30.7835C60.4552 30.5356 61.65 30.5165 63.7096 30.7166Z" fill="white"></path><path d="M52.0591 36.8129C52.722 35.7093 53.9111 34.1091 54.7013 33.257C55.4919 32.4049 56.2492 31.6993 56.3849 31.6885C56.5205 31.6777 56.3188 32.1907 55.9367 32.8283C55.5546 33.4658 54.8388 34.706 54.3458 35.5844C53.8528 36.4627 52.9246 37.7223 52.2831 38.3838C51.5404 39.1492 51.0687 39.4471 50.985 39.203C50.9127 38.9921 51.3961 37.9165 52.0591 36.8129Z" fill="white"></path><path d="M87.1903 37.9506C87.6119 37.7901 87.9567 37.4463 87.9567 37.186C87.9567 36.9118 88.098 36.8 88.2925 36.9204C88.4774 37.0346 89.0173 37.9858 89.4929 39.0342C90.281 40.7724 90.3205 41.0123 89.9411 41.7571C89.7125 42.2065 89.2933 43.3806 89.0098 44.3665C88.6352 45.6691 88.181 46.457 87.3487 47.249C86.7126 47.854 85.4963 48.5776 84.615 48.8755C83.6894 49.1886 82.1362 49.4156 80.8909 49.4207C78.905 49.4282 78.5373 49.3197 75.6626 47.877C73.962 47.0231 72.0998 46.3001 71.5247 46.2699C70.9496 46.2395 69.2616 46.3153 67.7734 46.4381C65.9593 46.5878 64.637 46.5454 63.7604 46.3094C63.0413 46.1158 61.9885 45.6416 61.4205 45.2556C60.8526 44.8699 60.1385 44.1759 59.8335 43.7134C59.5287 43.2509 59.2784 42.5748 59.2775 42.2109C59.2763 41.8471 59.5105 41.4291 59.7982 41.2821C60.0859 41.1351 60.7916 40.9248 61.3667 40.8145C61.9419 40.7043 63.9711 40.7694 65.876 40.9594C68.8236 41.2534 69.6694 41.2346 71.5525 40.8336C72.7696 40.5746 75.9165 39.8875 78.5456 39.307C81.1747 38.7265 84.0228 38.2493 84.8749 38.2467C85.727 38.244 86.7688 38.1107 87.1903 37.9506Z" fill="white"></path><path d="M50.7 41.2128C51.0621 41.2035 51.9632 40.9424 52.7026 40.632C53.442 40.3216 54.1567 40.0604 54.2908 40.0512C54.4247 40.0419 54.7945 40.1737 55.1124 40.3437C55.4348 40.5164 55.6902 40.9669 55.6902 41.3628C55.6902 41.7954 55.3419 42.3457 54.7987 42.7714C54.3088 43.1556 53.5117 43.775 53.028 44.1472C52.544 44.5198 51.9838 45.3264 51.7827 45.9398C51.5813 46.5535 51.2201 47.3577 50.9796 47.7276C50.7394 48.0975 50.372 48.3998 50.1637 48.3998C49.9552 48.3998 49.7036 48.0975 49.6044 47.7276C49.5055 47.3577 49.4234 46.2487 49.4219 45.2628C49.4207 44.2769 49.5596 42.9662 49.7308 42.3499C49.9671 41.4981 50.1996 41.2256 50.7 41.2128Z" fill="white"></path><path d="M89.7567 46.5732C90.1164 45.3596 90.4732 44.2635 90.549 44.1377C90.6246 44.0116 90.8119 43.9859 90.9649 44.0806C91.1179 44.175 91.241 45.757 91.2386 47.5958C91.2362 49.4479 91.042 51.7543 90.8033 52.7662C90.5664 53.771 89.9614 55.4539 89.4588 56.5059C88.9563 57.5578 87.9393 59.1909 87.1984 60.1343C86.4578 61.0781 85.2932 62.255 84.6102 62.7497C83.9269 63.2445 83.2592 63.5403 83.1257 63.4067C82.9924 63.2735 83.2744 62.2287 83.7528 61.085C84.2311 59.9417 84.8349 57.9695 85.0945 56.7031C85.3541 55.4366 85.5666 54.0497 85.5666 53.621C85.5666 53.1926 85.7204 52.5484 85.9083 52.1893C86.0966 51.8305 86.8922 50.9166 87.6764 50.1583C88.8607 49.0132 89.2133 48.4058 89.7567 46.5732Z" fill="white"></path><path d="M52.3145 49.5247C53.0372 48.1486 53.8182 47.1172 54.4647 46.6864C55.0231 46.3142 55.8298 46.0109 56.2573 46.0127C56.6848 46.0142 57.712 46.3309 58.5398 46.7166C59.3818 47.1086 60.5897 48.0359 61.281 48.8214C61.9607 49.5937 62.7288 50.847 62.9875 51.6068C63.2463 52.3662 63.4581 53.9296 63.4581 55.0808C63.4581 56.5785 63.2842 57.533 62.8474 58.4356C62.4512 59.2539 61.8842 59.8646 61.2338 60.1732C60.682 60.4349 60.0495 60.6482 59.8278 60.6473C59.6061 60.6464 58.9193 60.5054 58.3017 60.3339C57.6839 60.1624 56.2722 59.4006 55.1647 58.6408C54.0569 57.8814 52.7489 57.1769 52.2577 57.0756C51.4783 56.9149 51.2629 56.6269 50.5664 54.8116C50.1276 53.6679 49.6872 52.1941 49.5877 51.5368C49.4305 50.4998 49.453 50.4308 49.7559 51.014C49.948 51.3839 50.3469 51.6862 50.6423 51.6862C51.0053 51.6862 51.5476 50.9856 52.3145 49.5247Z" fill="white"></path><path d="M65.0027 50.5969C65.0597 50.3006 65.4416 49.8886 65.8509 49.6815C66.2602 49.4745 67.2001 49.3039 67.9395 49.3027C68.679 49.3012 70.3825 49.5638 71.7255 49.8856C73.0684 50.2076 75.0623 50.9462 76.157 51.5267C77.8202 52.4092 78.4527 52.5825 80.0072 52.5825C81.1072 52.5825 82.0949 52.7492 82.4248 52.9903C82.8753 53.3196 82.9766 53.7653 82.9512 55.3057C82.9342 56.355 82.6429 58.4786 82.3041 60.0253C81.9653 61.5717 81.478 63.1575 81.2216 63.5489C80.965 63.9406 80.4081 64.3929 79.9845 64.554C79.5605 64.7153 78.9289 64.761 78.5809 64.6558C78.2328 64.5504 77.6556 64.1966 77.2977 63.8698C76.9401 63.5426 76.3479 62.5161 75.9816 61.5887C75.6151 60.6611 74.99 59.4606 74.5924 58.9214C74.0818 58.2288 72.8718 57.4571 70.4793 56.2982C68.2837 55.2346 66.7672 54.289 66.1744 53.6138C65.671 53.0405 65.1784 52.2485 65.0792 51.8538C64.98 51.4589 64.9456 50.8933 65.0027 50.5969Z" fill="white"></path><path d="M66.1216 58.8019C66.4708 58.3609 67.0561 57.9534 67.4227 57.8963C67.789 57.8393 68.4955 57.8763 68.9924 57.9791C69.4889 58.0815 70.1728 58.314 70.5119 58.4953C70.8507 58.6767 71.6302 59.3809 72.2435 60.06C72.8572 60.739 73.6202 61.9036 73.939 62.6478C74.2581 63.3921 74.9416 64.3956 75.4582 64.8781C76.1905 65.5623 76.318 65.8344 76.0372 66.1153C75.8113 66.3412 74.7023 66.475 73.057 66.475C70.7333 66.475 70.2382 66.3734 68.6811 65.5772C67.5774 65.0129 66.7179 64.3239 66.3665 63.7222C66.0591 63.1958 65.7353 62.0536 65.6471 61.1842C65.5139 59.8708 65.5939 59.4678 66.1216 58.8019Z" fill="white"></path><path d="M54.4952 61.2556C54.4952 60.9769 54.5848 60.659 54.6945 60.5496C54.8038 60.44 55.0264 60.3504 55.1886 60.3504C55.3508 60.3504 56.3702 60.8499 57.4541 61.4603C59.1006 62.3879 59.7334 62.5773 61.3019 62.6126C62.8271 62.6466 63.3192 62.7865 63.9283 63.3589C64.358 63.7622 64.6409 64.3227 64.591 64.6714C64.5211 65.1584 64.2462 65.2985 63.2155 65.3729C62.1991 65.4461 61.9478 65.5709 62.0237 65.9656C62.0835 66.2766 62.5167 66.5303 63.1674 66.636C63.7434 66.7298 64.7822 67.1254 65.4762 67.5153C66.17 67.9055 66.6982 68.264 66.6498 68.3127C66.6011 68.3611 66.0313 68.2613 65.3833 68.091C64.7353 67.9207 63.3171 67.4496 62.232 67.0441C61.1465 66.6384 59.6261 65.9056 58.8529 65.415C58.0797 64.9247 56.7828 63.9023 55.9711 63.1429C55.1593 62.3837 54.4952 61.5344 54.4952 61.2556Z" fill="white"></path><path d="M79.1157 66.0033C79.9522 65.6857 81.1747 65.1031 81.832 64.7087C82.4893 64.3144 83.1358 63.9791 83.2688 63.9636C83.4017 63.9481 83.4286 64.0679 83.3285 64.2298C83.2287 64.3914 82.241 65.0621 81.1344 65.7197C80.0275 66.3773 78.1181 67.2742 76.8917 67.7128C75.1182 68.3468 74.1111 68.5123 71.9728 68.5209C70.494 68.5269 68.742 68.3742 68.0796 68.1818C67.4173 67.9891 66.6106 67.6363 66.2871 67.3976C65.8303 67.0603 65.7786 66.8825 66.0555 66.6017C66.3343 66.3188 67.1188 66.3824 69.6574 66.8948C72.7867 67.5263 72.9871 67.5323 75.2485 67.0654C76.5385 66.7989 78.2788 66.3208 79.1157 66.0033Z" fill="white"></path></g><path fill-rule="evenodd" clip-rule="evenodd" d="M19.9824 82.5634V88.5675L23.9361 88.5662C26.1107 88.5655 28.4959 88.4954 29.2367 88.4105C29.9955 88.3236 31.0222 88.0807 31.5879 87.8543C32.2083 87.6058 32.9099 87.1618 33.4233 86.6927C33.9476 86.2134 34.4299 85.5762 34.7307 84.9654C35.1412 84.1315 35.2071 83.8306 35.2071 82.7893C35.2071 81.9289 35.1121 81.327 34.877 80.6989C34.6739 80.1559 34.2481 79.4897 33.7697 78.9662C33.3422 78.4985 32.6883 77.9374 32.3164 77.7196C31.9447 77.5017 31.2111 77.182 30.6863 77.0091C29.8274 76.7262 29.2459 76.6879 24.8573 76.6271L19.9824 76.5596V82.5634ZM37.6395 82.5842V88.577L39.5203 88.5338L41.4012 88.4907L41.4471 83.3471C41.4723 80.5181 41.45 77.8407 41.3977 77.3974L41.3023 76.5914H39.4709H37.6395V82.5842ZM49.6421 76.7564C49.1078 76.8257 48.4169 76.9645 48.1068 77.0647C47.7966 77.165 47.2769 77.3809 46.9518 77.5442C46.6266 77.7077 46.047 78.1303 45.6635 78.4831C45.2801 78.836 44.8138 79.3666 44.6275 79.6621C44.4413 79.9577 44.2019 80.4642 44.0957 80.7877C43.9894 81.1113 43.9061 81.9166 43.9105 82.5773C43.917 83.566 43.9971 83.951 44.3638 84.7528C44.6602 85.4015 45.09 85.9906 45.6498 86.5162C46.1123 86.9501 46.7619 87.4434 47.0934 87.6123C47.425 87.7812 48.0764 88.04 48.5408 88.1876C49.2463 88.4118 50.1875 88.4678 54.2602 88.5289H59.1351V82.1188H55.4501V85.5341H51.461C50.5397 85.5341 49.8281 85.3965 49.036 84.9643C48.574 84.7122 48.0865 84.2967 47.9013 83.997C47.6865 83.6494 47.5727 83.202 47.5652 82.674C47.5574 82.1354 47.654 81.7044 47.8626 81.3471C48.0326 81.0561 48.4679 80.6096 48.8298 80.3552C50.0024 79.6621 51.461 79.8157 51.461 79.8157H59.102V76.5914H52.3055C51.6145 76.5914 50.1765 76.687 49.6421 76.7564ZM61.5917 82.5794V88.5675H63.4342H65.2766V82.5794V76.5914H63.4342H61.5917V82.5794ZM67.7333 78.2035V79.8157H69.8828H72.0324V84.1916V88.5675H73.8749H75.7173V84.1957V79.8241L77.9053 79.7814L80.0932 79.7389L80.137 78.1651L80.1807 76.5914H73.957H67.7333V78.2035ZM87.4869 76.8083C87.1624 76.9279 86.7238 77.1871 86.5124 77.3844C86.3011 77.5815 84.4341 80.0904 82.3633 82.9594C80.2927 85.8286 78.295 88.4598 78.2537 88.5675C78.2537 88.5675 78.9147 88.5675 80.5758 88.5671L82.7034 88.567L85.4671 84.6537C86.9872 82.5016 88.2654 80.7415 88.3076 80.7426C88.3498 80.7438 88.7816 81.3244 89.2672 82.0328C89.7529 82.7412 90.2298 83.4512 90.2298 83.5006C90.2298 83.5501 89.6386 83.5006 89.0134 83.5006H87.8768L86.9273 84.8281C86.4049 85.5584 85.6675 86.4572 85.6236 86.5714C85.6236 86.5714 86.4049 86.5714 89.1078 86.5714H92.3974L93.1154 87.5694L93.8333 88.5675H96.0015H98.1695L97.894 88.1452C97.7425 87.9131 97.3373 87.3292 96.9935 86.8478C96.6497 86.3665 95.0217 84.0591 93.3758 81.7203C91.4138 78.9325 90.1977 77.3458 89.8444 77.1132C89.548 76.9179 89.0292 76.7206 88.6914 76.6746C88.3325 76.6257 87.8321 76.6813 87.4869 76.8083ZM100.437 82.5794V88.5675H102.28H104.122V82.5794V76.5914H102.28H100.437V82.5794ZM107.546 76.8923C107.276 77.057 106.947 77.3988 106.817 77.6517C106.616 78.0405 106.579 78.9198 106.579 83.3394V88.5675H108.175C109.552 88.5675 109.96 88.5675 109.96 88.5675C109.96 88.5675 109.966 86.649 109.954 84.9597C109.943 83.2705 109.938 81.8341 109.945 81.7676C109.951 81.7013 110.492 82.1099 111.147 82.6757C111.801 83.2416 112.786 84.0993 113.335 84.5817C113.883 85.064 115.058 86.0893 115.945 86.8599C116.876 87.6696 117.794 88.3342 118.119 88.4345C118.428 88.5297 118.871 88.5601 119.103 88.5017C119.335 88.4435 119.749 88.1716 120.023 87.8977C120.419 87.5017 120.542 87.2278 120.62 86.5633C120.675 86.1033 120.699 83.6887 120.674 81.1975L120.62 76.5811H117.332L117.291 79.972L117.25 83.3631L116.405 82.6477C115.941 82.2544 115.215 81.6384 114.793 81.2789C114.371 80.9196 113.058 79.8111 111.876 78.8157C110.694 77.8203 109.504 76.9127 109.232 76.7986C108.961 76.6847 108.581 76.5917 108.388 76.592C108.195 76.5923 107.816 76.7274 107.546 76.8923ZM29.8857 80.0775C30.2235 80.2557 30.6955 80.6076 30.9344 80.8593C31.1735 81.1109 31.4282 81.5794 31.5005 81.9003C31.573 82.2212 31.592 82.6953 31.543 82.9539C31.4941 83.2123 31.3617 83.6078 31.2487 83.8326C31.1359 84.0574 30.852 84.3918 30.6181 84.5759C30.3841 84.7598 29.9599 85.0078 29.6751 85.1268C29.2952 85.2855 28.4263 85.3431 26.4124 85.3431H23.6674V82.4857V79.6285L26.4695 79.6907C28.9527 79.746 29.3414 79.79 29.8857 80.0775Z" fill="white"></path><path d="M64.8025 27.0875C65.9528 26.8216 67.2972 26.5456 67.7901 26.4742C68.2831 26.4025 69.8964 26.4064 71.3753 26.4829C72.8542 26.5593 74.6178 26.7458 75.2948 26.8972C75.9715 27.0487 76.9081 27.3182 77.376 27.496C78.0554 27.7544 78.1384 27.8754 77.7886 28.0965C77.5478 28.2488 76.3422 28.38 75.1098 28.3875C73.8774 28.3952 71.4575 28.5948 69.7321 28.8308C68.0067 29.0669 65.2058 29.2643 63.508 29.2694C61.1693 29.2766 60.4501 29.1885 60.5419 28.9055C60.6085 28.7003 61.1238 28.3158 61.687 28.0517C62.2502 27.7873 63.6523 27.3534 64.8025 27.0875Z" fill="white"></path><path d="M76.9024 29.642C76.9024 29.5057 77.2723 29.2422 77.724 29.0564C78.1758 28.8706 79.0568 28.78 79.6815 28.8553C80.3062 28.9306 81.3146 29.3106 81.9222 29.7002C82.5299 30.0895 83.8675 31.2165 84.8943 32.2045C86.0004 33.2687 86.7616 34.2522 86.7616 34.617C86.7616 34.9561 86.5017 35.3723 86.1838 35.5425C85.8659 35.7125 84.8686 35.8518 83.9676 35.8518C83.0662 35.8518 82.1176 35.7705 81.8592 35.6716C81.6008 35.5724 80.8915 34.7992 80.2832 33.9537C79.6746 33.1079 78.6651 31.8477 78.0398 31.1528C77.4142 30.4582 76.9024 29.7785 76.9024 29.642Z" fill="white"></path><path d="M63.7096 30.7166C65.7654 30.9162 67.3683 30.8911 69.284 30.6288C70.7628 30.4262 72.3469 30.2413 72.804 30.218C73.2611 30.1944 74.0678 30.3596 74.5966 30.5849C75.1254 30.8101 75.8382 31.3145 76.1806 31.7052C76.523 32.0963 77.1615 33.0449 77.5997 33.8136C78.0377 34.5823 78.3962 35.4852 78.3962 35.8198C78.3962 36.1544 78.1611 36.5503 77.8734 36.6994C77.5857 36.8481 75.6814 37.2748 73.6411 37.6467C70.4348 38.2317 69.3604 38.2971 65.7239 38.1295C62.433 37.9778 61.1579 38.033 59.8729 38.3838C58.9692 38.6306 57.8004 38.834 57.2758 38.8358C56.6257 38.8382 56.1733 38.6276 55.8566 38.1753C55.6009 37.8102 55.3915 37.2297 55.3915 36.8852C55.3915 36.5407 55.5967 35.5682 55.8474 34.7239C56.1001 33.8728 56.7353 32.7309 57.2737 32.16C57.8581 31.5406 58.7579 30.9927 59.5344 30.7835C60.4552 30.5356 61.65 30.5165 63.7096 30.7166Z" fill="white"></path><path d="M52.0591 36.8129C52.722 35.7093 53.9111 34.1091 54.7013 33.257C55.4919 32.4049 56.2492 31.6993 56.3849 31.6885C56.5205 31.6777 56.3188 32.1907 55.9367 32.8283C55.5546 33.4658 54.8388 34.706 54.3458 35.5844C53.8528 36.4627 52.9246 37.7223 52.2831 38.3838C51.5404 39.1492 51.0687 39.4471 50.985 39.203C50.9127 38.9921 51.3961 37.9165 52.0591 36.8129Z" fill="white"></path><path d="M87.1903 37.9506C87.6119 37.7901 87.9567 37.4463 87.9567 37.186C87.9567 36.9118 88.098 36.8 88.2925 36.9204C88.4774 37.0346 89.0173 37.9858 89.4929 39.0342C90.281 40.7724 90.3205 41.0123 89.9411 41.7571C89.7125 42.2065 89.2933 43.3806 89.0098 44.3665C88.6352 45.6691 88.181 46.457 87.3487 47.249C86.7126 47.854 85.4963 48.5776 84.615 48.8755C83.6894 49.1886 82.1362 49.4156 80.8909 49.4207C78.905 49.4282 78.5373 49.3197 75.6626 47.877C73.962 47.0231 72.0998 46.3001 71.5247 46.2699C70.9496 46.2395 69.2616 46.3153 67.7734 46.4381C65.9593 46.5878 64.637 46.5454 63.7604 46.3094C63.0413 46.1158 61.9885 45.6416 61.4205 45.2556C60.8526 44.8699 60.1385 44.1759 59.8335 43.7134C59.5287 43.2509 59.2784 42.5748 59.2775 42.2109C59.2763 41.8471 59.5105 41.4291 59.7982 41.2821C60.0859 41.1351 60.7916 40.9248 61.3667 40.8145C61.9419 40.7043 63.9711 40.7694 65.876 40.9594C68.8236 41.2534 69.6694 41.2346 71.5525 40.8336C72.7696 40.5746 75.9165 39.8875 78.5456 39.307C81.1747 38.7265 84.0228 38.2493 84.8749 38.2467C85.727 38.244 86.7688 38.1107 87.1903 37.9506Z" fill="white"></path><path d="M50.7 41.2128C51.0621 41.2035 51.9632 40.9424 52.7026 40.632C53.442 40.3216 54.1567 40.0604 54.2908 40.0512C54.4247 40.0419 54.7945 40.1737 55.1124 40.3437C55.4348 40.5164 55.6902 40.9669 55.6902 41.3628C55.6902 41.7954 55.3419 42.3457 54.7987 42.7714C54.3088 43.1556 53.5117 43.775 53.028 44.1472C52.544 44.5198 51.9838 45.3264 51.7827 45.9398C51.5813 46.5535 51.2201 47.3577 50.9796 47.7276C50.7394 48.0975 50.372 48.3998 50.1637 48.3998C49.9552 48.3998 49.7036 48.0975 49.6044 47.7276C49.5055 47.3577 49.4234 46.2487 49.4219 45.2628C49.4207 44.2769 49.5596 42.9662 49.7308 42.3499C49.9671 41.4981 50.1996 41.2256 50.7 41.2128Z" fill="white"></path><path d="M89.7567 46.5732C90.1164 45.3596 90.4732 44.2635 90.549 44.1377C90.6246 44.0116 90.8119 43.9859 90.9649 44.0806C91.1179 44.175 91.241 45.757 91.2386 47.5958C91.2362 49.4479 91.042 51.7543 90.8033 52.7662C90.5664 53.771 89.9614 55.4539 89.4588 56.5059C88.9563 57.5578 87.9393 59.1909 87.1984 60.1343C86.4578 61.0781 85.2932 62.255 84.6102 62.7497C83.9269 63.2445 83.2592 63.5403 83.1257 63.4067C82.9924 63.2735 83.2744 62.2287 83.7528 61.085C84.2311 59.9417 84.8349 57.9695 85.0945 56.7031C85.3541 55.4366 85.5666 54.0497 85.5666 53.621C85.5666 53.1926 85.7204 52.5484 85.9083 52.1893C86.0966 51.8305 86.8922 50.9166 87.6764 50.1583C88.8607 49.0132 89.2133 48.4058 89.7567 46.5732Z" fill="white"></path><path d="M52.3145 49.5247C53.0372 48.1486 53.8182 47.1172 54.4647 46.6864C55.0231 46.3142 55.8298 46.0109 56.2573 46.0127C56.6848 46.0142 57.712 46.3309 58.5398 46.7166C59.3818 47.1086 60.5897 48.0359 61.281 48.8214C61.9607 49.5937 62.7288 50.847 62.9875 51.6068C63.2463 52.3662 63.4581 53.9296 63.4581 55.0808C63.4581 56.5785 63.2842 57.533 62.8474 58.4356C62.4512 59.2539 61.8842 59.8646 61.2338 60.1732C60.682 60.4349 60.0495 60.6482 59.8278 60.6473C59.6061 60.6464 58.9193 60.5054 58.3017 60.3339C57.6839 60.1624 56.2722 59.4006 55.1647 58.6408C54.0569 57.8814 52.7489 57.1769 52.2577 57.0756C51.4783 56.9149 51.2629 56.6269 50.5664 54.8116C50.1276 53.6679 49.6872 52.1941 49.5877 51.5368C49.4305 50.4998 49.453 50.4308 49.7559 51.014C49.948 51.3839 50.3469 51.6862 50.6423 51.6862C51.0053 51.6862 51.5476 50.9856 52.3145 49.5247Z" fill="white"></path><path d="M65.0027 50.5969C65.0597 50.3006 65.4416 49.8886 65.8509 49.6815C66.2602 49.4745 67.2001 49.3039 67.9395 49.3027C68.679 49.3012 70.3825 49.5638 71.7255 49.8856C73.0684 50.2076 75.0623 50.9462 76.157 51.5267C77.8202 52.4092 78.4527 52.5825 80.0072 52.5825C81.1072 52.5825 82.0949 52.7492 82.4248 52.9903C82.8753 53.3196 82.9766 53.7653 82.9512 55.3057C82.9342 56.355 82.6429 58.4786 82.3041 60.0253C81.9653 61.5717 81.478 63.1575 81.2216 63.5489C80.965 63.9406 80.4081 64.3929 79.9845 64.554C79.5605 64.7153 78.9289 64.761 78.5809 64.6558C78.2328 64.5504 77.6556 64.1966 77.2977 63.8698C76.9401 63.5426 76.3479 62.5161 75.9816 61.5887C75.6151 60.6611 74.99 59.4606 74.5924 58.9214C74.0818 58.2288 72.8718 57.4571 70.4793 56.2982C68.2837 55.2346 66.7672 54.289 66.1744 53.6138C65.671 53.0405 65.1784 52.2485 65.0792 51.8538C64.98 51.4589 64.9456 50.8933 65.0027 50.5969Z" fill="white"></path><path d="M66.1216 58.8019C66.4708 58.3609 67.0561 57.9534 67.4227 57.8963C67.789 57.8393 68.4955 57.8763 68.9924 57.9791C69.4889 58.0815 70.1728 58.314 70.5119 58.4953C70.8507 58.6767 71.6302 59.3809 72.2435 60.06C72.8572 60.739 73.6202 61.9036 73.939 62.6478C74.2581 63.3921 74.9416 64.3956 75.4582 64.8781C76.1905 65.5623 76.318 65.8344 76.0372 66.1153C75.8113 66.3412 74.7023 66.475 73.057 66.475C70.7333 66.475 70.2382 66.3734 68.6811 65.5772C67.5774 65.0129 66.7179 64.3239 66.3665 63.7222C66.0591 63.1958 65.7353 62.0536 65.6471 61.1842C65.5139 59.8708 65.5939 59.4678 66.1216 58.8019Z" fill="white"></path><path d="M54.4952 61.2556C54.4952 60.9769 54.5848 60.659 54.6945 60.5496C54.8038 60.44 55.0264 60.3504 55.1886 60.3504C55.3508 60.3504 56.3702 60.8499 57.4541 61.4603C59.1006 62.3879 59.7334 62.5773 61.3019 62.6126C62.8271 62.6466 63.3192 62.7865 63.9283 63.3589C64.358 63.7622 64.6409 64.3227 64.591 64.6714C64.5211 65.1584 64.2462 65.2985 63.2155 65.3729C62.1991 65.4461 61.9478 65.5709 62.0237 65.9656C62.0835 66.2766 62.5167 66.5303 63.1674 66.636C63.7434 66.7298 64.7822 67.1254 65.4762 67.5153C66.17 67.9055 66.6982 68.264 66.6498 68.3127C66.6011 68.3611 66.0313 68.2613 65.3833 68.091C64.7353 67.9207 63.3171 67.4496 62.232 67.0441C61.1465 66.6384 59.6261 65.9056 58.8529 65.415C58.0797 64.9247 56.7828 63.9023 55.9711 63.1429C55.1593 62.3837 54.4952 61.5344 54.4952 61.2556Z" fill="white"></path><path d="M79.1157 66.0033C79.9522 65.6857 81.1747 65.1031 81.832 64.7087C82.4893 64.3144 83.1358 63.9791 83.2688 63.9636C83.4017 63.9481 83.4286 64.0679 83.3285 64.2298C83.2287 64.3914 82.241 65.0621 81.1344 65.7197C80.0275 66.3773 78.1181 67.2742 76.8917 67.7128C75.1182 68.3468 74.1111 68.5123 71.9728 68.5209C70.494 68.5269 68.742 68.3742 68.0796 68.1818C67.4173 67.9891 66.6106 67.6363 66.2871 67.3976C65.8303 67.0603 65.7786 66.8825 66.0555 66.6017C66.3343 66.3188 67.1188 66.3824 69.6574 66.8948C72.7867 67.5263 72.9871 67.5323 75.2485 67.0654C76.5385 66.7989 78.2788 66.3208 79.1157 66.0033Z" fill="white"></path><defs><filter id="filter0_f_14095_57685" x="5.65468" y="12.0951" width="129.357" height="90.8098" filterUnits="userSpaceOnUse" color-interpolation-filters="sRGB"><feFlood flood-opacity="0" result="BackgroundImageFix"></feFlood><feBlend mode="normal" in="SourceGraphic" in2="BackgroundImageFix" result="shape"></feBlend><feGaussianBlur stdDeviation="7.16387" result="effect1_foregroundBlur_14095_57685"></feGaussianBlur></filter></defs></svg>