<svg className="SVGInline-svg SVG-component__content-svg" viewBox="0 0 24 24" fill="none" xmlns="http://www.w3.org/2000/svg">
                              <g clip-path="url(#clip0_11402_11005)">
                                <path opacity="0.975" fill-rule="evenodd" clip-rule="evenodd" d="M10.9453 -0.0234375C11.6328 -0.0234375 12.3203 -0.0234375 13.0078 -0.0234375C17.4322 0.519309 20.69 2.75369 22.7812 6.67969C23.4218 8.03948 23.8203 9.46139 23.9766 10.9453C23.9766 11.6328 23.9766 12.3203 23.9766 13.0078C23.4338 17.4322 21.1995 20.69 17.2734 22.7812C15.9136 23.4218 14.4917 23.8203 13.0078 23.9766C12.3203 23.9766 11.6328 23.9766 10.9453 23.9766C6.52097 23.4338 3.26313 21.1995 1.17188 17.2734C0.5313 15.9136 0.132861 14.4917 -0.0234375 13.0078C-0.0234375 12.3203 -0.0234375 11.6328 -0.0234375 10.9453C0.519309 6.52097 2.75369 3.26313 6.67969 1.17188C8.03948 0.5313 9.46139 0.132861 10.9453 -0.0234375ZM11.2266 1.52344C11.2733 2.85915 11.289 4.2029 11.2734 5.55469C10.2476 5.53491 9.23198 5.42555 8.22656 5.22656C8.69569 3.98208 9.41447 2.91176 10.3828 2.01562C10.6486 1.81904 10.9299 1.65497 11.2266 1.52344ZM12.6797 1.52344C13.3479 1.79287 13.9026 2.21474 14.3438 2.78906C14.9128 3.53604 15.3737 4.34854 15.7266 5.22656C14.7211 5.42555 13.7055 5.53491 12.6797 5.55469C12.6797 4.21094 12.6797 2.86719 12.6797 1.52344ZM8.22656 2.08594C8.27461 2.10453 8.28244 2.13578 8.25 2.17969C7.63078 3.00367 7.13859 3.9021 6.77344 4.875C6.08934 4.75116 5.43309 4.53239 4.80469 4.21875C5.81119 3.29358 6.9518 2.58264 8.22656 2.08594ZM15.6797 2.08594C16.979 2.57116 18.1352 3.2821 19.1484 4.21875C18.52 4.53239 17.8638 4.75116 17.1797 4.875C16.9599 4.38073 16.7333 3.88854 16.5 3.39844C16.2373 2.95042 15.9638 2.51293 15.6797 2.08594ZM3.72656 5.36719C4.52706 5.74088 5.35519 6.04556 6.21094 6.28125C6.25444 6.29944 6.2857 6.3307 6.30469 6.375C5.87269 7.97944 5.63831 9.61223 5.60156 11.2734C4.21094 11.2734 2.82031 11.2734 1.42969 11.2734C1.60757 9.06661 2.37319 7.09786 3.72656 5.36719ZM20.1328 5.36719C20.2039 5.3677 20.2586 5.39892 20.2969 5.46094C21.6052 7.17398 22.3474 9.11147 22.5234 11.2734C21.1328 11.2734 19.7422 11.2734 18.3516 11.2734C18.3148 9.61223 18.0804 7.97944 17.6484 6.375C17.6674 6.3307 17.6987 6.29944 17.7422 6.28125C18.578 6.06281 19.3749 5.75812 20.1328 5.36719ZM7.75781 6.63281C8.91741 6.86466 10.0893 6.98967 11.2734 7.00781C11.2734 8.42967 11.2734 9.85158 11.2734 11.2734C9.86719 11.2734 8.46094 11.2734 7.05469 11.2734C7.08605 9.69389 7.32042 8.14702 7.75781 6.63281ZM16.1016 6.63281C16.1483 6.62878 16.1873 6.64444 16.2188 6.67969C16.6371 8.18255 16.8637 9.71381 16.8984 11.2734C15.4922 11.2734 14.0859 11.2734 12.6797 11.2734C12.6797 9.85158 12.6797 8.42967 12.6797 7.00781C13.8391 6.99487 14.9798 6.86986 16.1016 6.63281ZM1.42969 12.6797C2.82031 12.6797 4.21094 12.6797 5.60156 12.6797C5.63831 14.3409 5.87269 15.9737 6.30469 17.5781C6.2857 17.6224 6.25444 17.6537 6.21094 17.6719C5.36808 17.8981 4.55557 18.2028 3.77344 18.5859C2.37864 16.8721 1.59739 14.9033 1.42969 12.6797ZM7.05469 12.6797C8.46094 12.6797 9.86719 12.6797 11.2734 12.6797C11.2734 14.1015 11.2734 15.5235 11.2734 16.9453C10.1046 16.9606 8.94834 17.0857 7.80469 17.3203C7.77722 17.3105 7.75378 17.2949 7.73438 17.2734C7.31606 15.7706 7.08947 14.2393 7.05469 12.6797ZM12.6797 12.6797C14.0859 12.6797 15.4922 12.6797 16.8984 12.6797C16.8637 14.2393 16.6371 15.7706 16.2188 17.2734C16.1993 17.2949 16.1759 17.3105 16.1484 17.3203C15.0048 17.0857 13.8485 16.9606 12.6797 16.9453C12.6797 15.5235 12.6797 14.1015 12.6797 12.6797ZM18.3516 12.6797C19.7422 12.6797 21.1328 12.6797 22.5234 12.6797C22.3558 14.9032 21.5745 16.872 20.1797 18.5859C19.3976 18.2028 18.585 17.8981 17.7422 17.6719C17.6987 17.6537 17.6674 17.6224 17.6484 17.5781C18.0804 15.9737 18.3148 14.3409 18.3516 12.6797ZM10.5703 18.3984C10.8047 18.3984 11.0391 18.3984 11.2734 18.3984C11.2813 19.7423 11.2734 21.086 11.25 22.4297C10.5949 22.1497 10.048 21.7279 9.60938 21.1641C9.04036 20.4171 8.57944 19.6046 8.22656 18.7266C9.00872 18.5781 9.78994 18.4688 10.5703 18.3984ZM12.6797 18.3984C13.7055 18.4182 14.7211 18.5276 15.7266 18.7266C15.2574 19.971 14.5387 21.0413 13.5703 21.9375C13.3044 22.1406 13.0153 22.3047 12.7031 22.4297C12.6797 21.086 12.6719 19.7423 12.6797 18.3984ZM6.63281 19.0547C6.69478 19.0467 6.74948 19.0623 6.79688 19.1016C7.1482 20.0702 7.63256 20.9608 8.25 21.7734C8.28127 21.8047 8.28127 21.8359 8.25 21.8672C6.9608 21.3754 5.81236 20.6644 4.80469 19.7344C5.39981 19.4554 6.00919 19.2289 6.63281 19.0547ZM17.1797 19.0547C17.8631 19.2018 18.5193 19.4283 19.1484 19.7344C18.1408 20.6644 16.9923 21.3754 15.7031 21.8672C15.9653 21.4384 16.2309 21.0008 16.5 20.5547C16.7401 20.059 16.9666 19.559 17.1797 19.0547Z" fill="#9533D4"></path>
                              </g>
                              <defs>
                                <clipPath id="clip0_11402_11005">
                                  <rect width="24" height="24" fill="white"></rect>
                                </clipPath>
                              </defs>
                            </svg>