<svg xmlns="http://www.w3.org/2000/svg" width="39" height="39" fill="none" viewBox="0 0 39 39"><path fill="#F2CE00" d="M6.094 34.125h7.312c.731 0 1.219-.487 1.219-1.219 0-.731-.488-1.218-1.219-1.218H9.02l6.46-6.46a1.18 1.18 0 0 0 0-1.706 1.18 1.18 0 0 0-1.707 0l-6.46 6.46v-4.388c0-.732-.487-1.219-1.218-1.219-.732 0-1.219.488-1.219 1.219v7.312c0 .732.487 1.219 1.219 1.219M29.981 31.688h-4.387c-.732 0-1.219.487-1.219 1.218 0 .732.488 1.219 1.219 1.219h7.312c.732 0 1.219-.487 1.219-1.219v-7.312c0-.732-.487-1.219-1.219-1.219-.731 0-1.218.488-1.218 1.219v4.387l-6.46-6.46a1.18 1.18 0 0 0-1.706 0 1.18 1.18 0 0 0 0 1.707zM32.906 4.875h-7.312c-.732 0-1.219.487-1.219 1.219 0 .731.488 1.218 1.219 1.218h4.387l-6.46 6.46a1.18 1.18 0 0 0 0 1.706 1.18 1.18 0 0 0 1.707 0l6.46-6.46v4.388c0 .731.487 1.219 1.218 1.219.732 0 1.219-.488 1.219-1.219V6.094c0-.732-.487-1.219-1.219-1.219M6.094 14.625c.731 0 1.218-.488 1.218-1.219V9.02l6.46 6.46a1.18 1.18 0 0 0 1.706 0 1.18 1.18 0 0 0 0-1.707l-6.46-6.46h4.388c.731 0 1.219-.487 1.219-1.218 0-.732-.488-1.219-1.219-1.219H6.094c-.732 0-1.219.487-1.219 1.219v7.312c0 .731.487 1.219 1.219 1.219"></path></svg>