<svg class="SVGInline-svg notification__cross-svg" viewBox="0 0 13 14" fill="none" xmlns="http://www.w3.org/2000/svg"><g clip-path="url(#clip0_5122_3528)"><path d="M12.8811 10.9436L8.93718 6.99968L12.8811 3.05581C12.9566 2.97931 12.999 2.87611 12.999 2.76859C12.999 2.66106 12.9566 2.55786 12.8811 2.48137L11.018 0.618305C10.9803 0.580498 10.9356 0.550499 10.8863 0.53003C10.837 0.50956 10.7841 0.499023 10.7308 0.499023C10.6774 0.499023 10.6246 0.50956 10.5753 0.53003C10.526 0.550499 10.4812 0.580498 10.4436 0.618305L6.49968 4.56218L2.55581 0.618305C2.47962 0.542145 2.37631 0.499361 2.26859 0.499361C2.16086 0.499361 2.05755 0.542145 1.98137 0.618305L0.118305 2.48137C0.0804977 2.51904 0.0504988 2.5638 0.0300296 2.61309C0.00956028 2.66237 -0.000976562 2.71522 -0.000976562 2.76859C-0.000976562 2.82196 0.00956028 2.8748 0.0300296 2.92409C0.0504988 2.97338 0.0804977 3.01814 0.118305 3.05581L4.06218 6.99968L0.118305 10.9436C0.0421453 11.0197 -0.000639035 11.1231 -0.000639035 11.2308C-0.000639035 11.3385 0.0421453 11.4418 0.118305 11.518L1.98137 13.3811C2.01904 13.4189 2.0638 13.4489 2.11309 13.4693C2.16237 13.4898 2.21522 13.5003 2.26859 13.5003C2.32196 13.5003 2.3748 13.4898 2.42409 13.4693C2.47338 13.4489 2.51814 13.4189 2.55581 13.3811L6.49968 9.43718L10.4436 13.3811C10.5197 13.4572 10.6231 13.5 10.7308 13.5C10.8385 13.5 10.9418 13.4572 11.018 13.3811L12.8811 11.518C12.9189 11.4803 12.9489 11.4356 12.9693 11.3863C12.9898 11.337 13.0003 11.2841 13.0003 11.2308C13.0003 11.1774 12.9898 11.1246 12.9693 11.0753C12.9489 11.026 12.9189 10.9812 12.8811 10.9436Z" fill="#682984"></path></g><defs><clipPath id="clip0_5122_3528"><rect width="13" height="13" fill="white" transform="translate(0 0.5)"></rect></clipPath></defs></svg>