<svg class="SVGInline-svg SVG-component__content-svg" viewBox="0 0 18 20" fill="none" xmlns="http://www.w3.org/2000/svg"><path d="M17 0.5H1C0.734784 0.5 0.48043 0.605357 0.292893 0.792893C0.105357 0.98043 0 1.23478 0 1.5V4.09C0 4.613 0.213 5.127 0.583 5.497L6 10.914V18.5C6.0002 18.6704 6.04387 18.8379 6.1269 18.9867C6.20992 19.1354 6.32955 19.2605 6.47444 19.3502C6.61934 19.4398 6.78471 19.4909 6.9549 19.4988C7.1251 19.5066 7.29447 19.4709 7.447 19.395L11.447 17.395C11.786 17.225 12 16.879 12 16.5V10.914L17.417 5.497C17.787 5.127 18 4.613 18 4.09V1.5C18 1.23478 17.8946 0.98043 17.7071 0.792893C17.5196 0.605357 17.2652 0.5 17 0.5ZM10.293 9.793C10.2 9.88571 10.1262 9.9959 10.0759 10.1172C10.0256 10.2386 9.99981 10.3687 10 10.5V15.882L8 16.882V10.5C8.00019 10.3687 7.9744 10.2386 7.92412 10.1172C7.87383 9.9959 7.80004 9.88571 7.707 9.793L2 4.09V2.5H16.001L16.003 4.083L10.293 9.793Z" fill="#682984"></path></svg>