<svg class="SVGInline-svg main-mobile-menu__menu-icon-svg" viewBox="0 0 20 20" fill="none" xmlns="http://www.w3.org/2000/svg"><g clip-path="url(#clip0_10917_22561)"><path d="M19.668 10.4419L19.668 10.4418L17.661 1.38124L17.661 1.38113C17.5814 1.02401 17.3635 0.713019 17.055 0.516387C16.7464 0.319756 16.3725 0.253542 16.0152 0.332272L16.0151 0.332296L6.95461 2.3393C6.77766 2.37849 6.61017 2.45215 6.46169 2.55608C6.31321 2.66001 6.18665 2.79217 6.08925 2.94501C5.99185 3.09786 5.92551 3.26839 5.89402 3.44687C5.86252 3.62535 5.8665 3.80828 5.90571 3.98522C5.90571 3.98523 5.90571 3.98523 5.90571 3.98523L6.71962 7.65967H1.68042H1.6803C1.31445 7.66008 0.963706 7.8056 0.705011 8.06429C0.446317 8.32299 0.300802 8.67373 0.300391 9.03958V9.0397L0.300391 18.3199L0.300391 18.32C0.300802 18.6858 0.446317 19.0366 0.705011 19.2953C0.963706 19.554 1.31445 19.6995 1.6803 19.6999H1.68042H10.9606H10.9607C11.3266 19.6995 11.6773 19.554 11.936 19.2953C12.1947 19.0366 12.3402 18.6858 12.3406 18.32V18.3199V13.4783L18.619 12.0877L18.6192 12.0876C18.9763 12.0081 19.2873 11.7902 19.4839 11.4816C19.6805 11.1731 19.7467 10.7992 19.668 10.4419ZM7.91266 13.0456L7.91267 13.0457C7.98062 13.3519 8.15078 13.6259 8.39516 13.8225C8.63953 14.0192 8.94356 14.1268 9.25724 14.1277L9.25759 14.1277C9.35883 14.1276 9.45975 14.1165 9.55858 14.0946L10.8609 13.8061L10.8614 18.2199H1.78042V9.1397H7.04749L7.91266 13.0456ZM18.2022 10.6641L9.33605 12.6279L7.37234 3.76264L16.2377 1.79881L18.2022 10.6641Z" fill="white" stroke="white" stroke-width="0.2"></path><path d="M2.96094 10.3196H4.56097V11.9196H2.96094V10.3196ZM2.96094 15.4397H4.56097V17.0397H2.96094V15.4397ZM8.08104 15.4397H9.68107V17.0397H8.08104V15.4397ZM5.52099 12.8797H7.12102V14.4797H5.52099V12.8797ZM8.77929 4.66217L10.3415 4.31641L10.6872 5.87864L9.12506 6.2244L8.77929 4.66217ZM14.8863 8.55117L16.4485 8.20516L16.7945 9.76735L15.2323 10.1134L14.8863 8.55117ZM11.8333 6.60517L13.3954 6.25916L13.7414 7.82131L12.1793 8.16732L11.8333 6.60517Z" fill="white"></path></g><defs><clipPath id="clip0_10917_22561"><rect width="20" height="20" fill="white"></rect></clipPath></defs></svg>