<svg className="SVGInline-svg header-mobile__burger-svg" viewBox="0 0 30 31" fill="none" xmlns="http://www.w3.org/2000/svg">
                  <g clip-path="url(#clip0_10681_2346)">
                    <path d="M21.6673 20.0832C21.9883 20.0833 22.297 20.207 22.5293 20.4285C22.7616 20.65 22.8998 20.9525 22.9153 21.2731C22.9307 21.5937 22.8222 21.908 22.6122 22.1508C22.4022 22.3936 22.1068 22.5464 21.7873 22.5773L21.6673 22.5832H8.33398C8.01297 22.583 7.70432 22.4594 7.472 22.2378C7.23967 22.0163 7.10147 21.7139 7.08605 21.3932C7.07062 21.0726 7.17914 20.7583 7.38913 20.5155C7.59912 20.2727 7.89447 20.12 8.21398 20.089L8.33398 20.0832H21.6673ZM21.6673 14.2498C21.9988 14.2498 22.3168 14.3815 22.5512 14.616C22.7856 14.8504 22.9173 15.1683 22.9173 15.4998C22.9173 15.8314 22.7856 16.1493 22.5512 16.3837C22.3168 16.6181 21.9988 16.7498 21.6673 16.7498H8.33398C8.00246 16.7498 7.68452 16.6181 7.4501 16.3837C7.21568 16.1493 7.08398 15.8314 7.08398 15.4998C7.08398 15.1683 7.21568 14.8504 7.4501 14.616C7.68452 14.3815 8.00246 14.2498 8.33398 14.2498H21.6673ZM21.6673 8.4165C21.9988 8.4165 22.3168 8.5482 22.5512 8.78262C22.7856 9.01704 22.9173 9.33498 22.9173 9.6665C22.9173 9.99802 22.7856 10.316 22.5512 10.5504C22.3168 10.7848 21.9988 10.9165 21.6673 10.9165H8.33398C8.00246 10.9165 7.68452 10.7848 7.4501 10.5504C7.21568 10.316 7.08398 9.99802 7.08398 9.6665C7.08398 9.33498 7.21568 9.01704 7.4501 8.78262C7.68452 8.5482 8.00246 8.4165 8.33398 8.4165H21.6673Z" fill="white"></path>
                  </g>
                  <defs>
                    <clipPath id="clip0_10681_2346">
                      <rect width="17.6" height="15.2" fill="white" transform="translate(6.2002 7.8999)"></rect>
                    </clipPath>
                  </defs>
                </svg>