<svg class="SVGInline-svg profile-navigation-mobile__icon-svg" viewBox="0 0 31 31" fill="none" xmlns="http://www.w3.org/2000/svg"><g clip-path="url(#clip0_10536_38814)"><path d="M14.02 24.309C8.27473 24.0669 3.77426 19.3687 3.77426 13.6134C3.77426 7.71046 8.57668 2.90805 14.4796 2.90805C19.4571 2.90805 23.8522 6.42892 24.93 11.2798C25.065 11.8873 25.6668 12.2704 26.2745 12.1354C26.8821 12.0004 27.2651 11.3985 27.1301 10.791C26.5008 7.95877 24.907 5.38639 22.6424 3.54778C20.3441 1.6819 17.4452 0.654297 14.4796 0.654297C11.0181 0.654297 7.7638 2.00227 5.31611 4.4499C2.86848 6.89759 1.52051 10.1518 1.52051 13.6134C1.52051 16.9782 2.80425 20.167 5.13514 22.5922C7.45926 25.0104 10.5809 26.4198 13.9251 26.5608C13.9412 26.5615 13.9573 26.5618 13.9733 26.5618C14.5739 26.5618 15.0729 26.088 15.0984 25.4824C15.1247 24.8606 14.6418 24.3352 14.02 24.309Z" fill="#EDEDED"></path><path d="M14.4796 5.17012C13.8573 5.17012 13.3528 5.67462 13.3528 6.29699V13.1467L9.71222 16.7872C9.27212 17.2273 9.27212 17.9407 9.71222 18.3808C9.93225 18.6009 10.2206 18.7109 10.509 18.7109C10.7975 18.7109 11.0858 18.6009 11.3059 18.3808L15.2765 14.4102C15.4878 14.1989 15.6065 13.9123 15.6065 13.6134V6.29699C15.6065 5.67462 15.102 5.17012 14.4796 5.17012Z" fill="#EDEDED"></path><path d="M28.0503 14.647C26.8754 14.1674 25.3376 13.9033 23.7201 13.9033C22.1026 13.9033 20.5648 14.1674 19.3898 14.647C17.3727 15.4703 17.0715 16.6525 17.0715 17.2839V26.0736C17.0715 26.705 17.3727 27.8872 19.3898 28.7105C20.5648 29.1901 22.1026 29.4542 23.7201 29.4542C25.3376 29.4542 26.8754 29.1901 28.0503 28.7105C30.0675 27.8872 30.3687 26.7049 30.3687 26.0736V17.2839C30.3687 16.6525 30.0675 15.4703 28.0503 14.647ZM28.1149 26.0378C27.9288 26.3843 26.4137 27.2004 23.7201 27.2004C21.0265 27.2004 19.5114 26.3843 19.3253 26.0378V24.2319C19.347 24.241 19.3677 24.2503 19.3898 24.2593C20.5648 24.7389 22.1026 25.003 23.7201 25.003C24.1102 25.003 24.5007 24.9876 24.8808 24.9571C25.5011 24.9074 25.9637 24.3641 25.9139 23.7437C25.8641 23.1233 25.3216 22.661 24.7005 22.7106C24.3802 22.7363 24.0503 22.7493 23.7201 22.7493C21.0257 22.7493 19.5108 21.9329 19.3253 21.5866V19.8935C19.347 19.9027 19.3677 19.9119 19.3898 19.921C20.5648 20.4005 22.1026 20.6647 23.7201 20.6647C24.1102 20.6647 24.5007 20.6492 24.8808 20.6187C25.5011 20.569 25.9637 20.0257 25.9139 19.4053C25.8641 18.7849 25.3216 18.3226 24.7005 18.3722C24.3802 18.3979 24.0503 18.411 23.7201 18.411C21.1146 18.411 19.6122 17.6476 19.3482 17.284C19.6126 16.9204 21.1151 16.1572 23.7201 16.1572C26.4137 16.1572 27.9288 16.9733 28.1149 17.3198V26.0378Z" fill="#EDEDED"></path></g><defs><clipPath id="clip0_10536_38814"><rect width="30" height="30" fill="white" transform="translate(0.945312 0.0544434)"></rect></clipPath></defs></svg>