<svg xmlns="http://www.w3.org/2000/svg" width="17" height="16" fill="none" viewBox="0 0 17 16"><path fill="#fff" d="M8.28 1.44c2.138 0 2.39.009 3.235.047.779.035 1.203.167 1.487.275.375.147.641.32.92.597.28.281.453.548.597.92.108.28.24.705.275 1.486.038.843.047 1.098.047 3.235s-.01 2.389-.047 3.235c-.035.781-.167 1.203-.275 1.487-.147.374-.32.64-.598.919a2.46 2.46 0 0 1-.919.597c-.28.108-.705.24-1.487.275-.843.038-1.097.047-3.234.047s-2.389-.009-3.235-.047c-.781-.035-1.203-.167-1.487-.275a2.5 2.5 0 0 1-.919-.597 2.5 2.5 0 0 1-.597-.92c-.108-.28-.24-.705-.275-1.486C1.73 10.392 1.72 10.137 1.72 8s.009-2.389.047-3.235c.035-.781.167-1.203.275-1.487.146-.374.319-.64.597-.919a2.46 2.46 0 0 1 .92-.597c.28-.108.705-.24 1.486-.275.843-.038 1.098-.047 3.235-.047m0-1.44C6.11 0 5.835.009 4.983.047S3.547.222 3.038.419a3.9 3.9 0 0 0-1.417.922c-.445.445-.717.89-.922 1.416C.5 3.267.366 3.85.328 4.701.29 5.556.28 5.828.28 8s.009 2.447.047 3.299.172 1.434.371 1.944c.205.527.477.971.922 1.416s.89.717 1.417.922c.51.2 1.092.334 1.944.372.855.038 1.127.047 3.299.047s2.444-.009 3.299-.047c.851-.038 1.434-.175 1.943-.372a3.9 3.9 0 0 0 1.417-.922c.445-.445.717-.89.922-1.416.2-.51.334-1.092.372-1.944.038-.855.047-1.127.047-3.299s-.009-2.447-.047-3.299-.176-1.434-.372-1.944a3.9 3.9 0 0 0-.922-1.416 3.9 3.9 0 0 0-1.417-.922c-.509-.2-1.091-.334-1.943-.372C10.725.009 10.453 0 8.28 0"></path><path fill="#fff" d="M8.28 3.89a4.11 4.11 0 1 0 0 8.219 4.11 4.11 0 0 0 0-8.219m0 6.777a2.667 2.667 0 1 1 .002-5.335 2.667 2.667 0 0 1-.001 5.335M13.515 3.73a.96.96 0 1 1-1.922-.002.96.96 0 0 1 1.922.001"></path></svg>