<svg class="SVGInline-svg main-mobile-menu__menu-icon-svg" viewBox="0 0 20 21" fill="none" xmlns="http://www.w3.org/2000/svg"><g clip-path="url(#clip0_10695_863)"><mask id="path-1-inside-1_10695_863" fill="white"><path d="M11.2003 11.7004C11.2003 11.7004 9.98131 12.188 9.20026 12.5004C9.35647 11.8756 9.60026 10.9004 9.60026 10.9004L10.2815 11.241L11.2003 11.7004Z"></path><path d="M12.8261 12.4319C13.3594 12.124 13.3594 11.3542 12.8261 11.0463L9.18739 8.94547C8.65405 8.63755 7.98739 9.02245 7.98739 9.63829L7.98739 13.8399C7.98739 14.4558 8.65405 14.8407 9.18739 14.5327L12.8261 12.4319Z"></path><path fill-rule="evenodd" clip-rule="evenodd" d="M14.9483 3.52877L14.4213 4.5341C16.8149 6.01875 18.4126 8.67014 18.4126 11.688C18.4126 16.3266 14.6389 20.1004 10.0003 20.1004C5.36166 20.1004 1.58789 16.3266 1.58789 11.688C1.58789 8.67014 3.18561 6.01875 5.57931 4.53414L5.05228 3.52881L6.10413 2.97736L6.63029 3.98102C7.49057 3.60339 8.42551 3.36563 9.40645 3.29691V2.08802H7.49559V0.900391H12.505V2.08802H10.5941V3.29687C11.5751 3.36563 12.51 3.60335 13.3703 3.98098L13.8964 2.97732L14.9483 3.52877ZM3.39487 11.688C3.39487 15.0524 6.01652 18.2934 10.0003 18.2934C13.984 18.2934 16.6057 15.0524 16.6057 11.688C16.6057 8.32363 13.984 5.08263 10.0003 5.08263C6.01652 5.08263 3.39487 8.32363 3.39487 11.688Z"></path></mask><path d="M9.90062 13.1017C10.1118 12.8558 10.3821 12.5409 10.5996 12.2876C10.7084 12.1609 10.8039 12.0496 10.8723 11.9699C10.9065 11.9301 10.9339 11.8982 10.9527 11.8763C10.9622 11.8653 10.9694 11.8568 10.9744 11.8511C10.9768 11.8482 10.9787 11.846 10.98 11.8445C10.9806 11.8438 10.9811 11.8433 10.9814 11.8429C10.9815 11.8427 10.9817 11.8425 10.9818 11.8425C10.9818 11.8424 10.9818 11.8424 10.9818 11.8424C10.9818 11.8424 10.9818 11.8424 10.9818 11.8424C10.9819 11.8423 10.9819 11.8423 10.9819 11.8423C10.9819 11.8423 10.9819 11.8423 10.2815 11.241C9.58115 10.6397 9.58115 10.6397 9.58115 10.6397C9.58114 10.6397 9.58113 10.6397 9.58112 10.6397C9.5811 10.6398 9.58108 10.6398 9.58103 10.6399C9.58094 10.64 9.58084 10.6401 9.58067 10.6403C9.58035 10.6406 9.57988 10.6412 9.57925 10.6419C9.57799 10.6434 9.57611 10.6456 9.57365 10.6485C9.56872 10.6542 9.56144 10.6627 9.55201 10.6737C9.53317 10.6956 9.50578 10.7275 9.47159 10.7673C9.40321 10.847 9.30764 10.9583 9.19887 11.085C8.98134 11.3383 8.71103 11.6532 8.4999 11.8991L9.90062 13.1017ZM11.2003 11.7004L11.8859 13.4145L15.703 11.8877L12.0259 10.0491L11.2003 11.7004ZM9.20026 12.5004L7.40923 12.0526L6.53352 15.5555L9.88591 14.2145L9.20026 12.5004ZM9.60026 10.9004L10.4259 9.24914L8.36741 8.2199L7.80923 10.4526L9.60026 10.9004ZM10.2815 11.241L11.1071 9.58977L11.1071 9.58976L10.2815 11.241ZM14.9483 3.52877L16.5834 4.38595L17.4405 2.7509L15.8055 1.8937L14.9483 3.52877ZM14.4213 4.5341L12.7862 3.67692L11.9888 5.19784L13.4482 6.10298L14.4213 4.5341ZM5.57931 4.53414L6.55237 6.10304L8.01174 5.19791L7.21441 3.67696L5.57931 4.53414ZM5.05228 3.52881L4.19506 1.89374L2.56004 2.75094L3.41719 4.38599L5.05228 3.52881ZM6.10413 2.97736L7.73922 2.12018L6.88202 0.485036L5.2469 1.34229L6.10413 2.97736ZM6.63029 3.98102L4.99519 4.8382L5.795 6.36386L7.37233 5.67148L6.63029 3.98102ZM9.40645 3.29691L9.53547 5.13855L11.2526 5.01825V3.29691H9.40645ZM9.40645 2.08802H11.2526V0.241866H9.40645V2.08802ZM7.49559 2.08802H5.64944V3.93417H7.49559V2.08802ZM7.49559 0.900391V-0.945763H5.64944V0.900391H7.49559ZM12.505 0.900391H14.3511V-0.945763H12.505V0.900391ZM12.505 2.08802V3.93417H14.3511V2.08802H12.505ZM10.5941 2.08802V0.241866H8.74796V2.08802H10.5941ZM10.5941 3.29687H8.74796V5.01814L10.465 5.1385L10.5941 3.29687ZM13.3703 3.98098L12.6282 5.67144L14.2056 6.36382L15.0054 4.83816L13.3703 3.98098ZM13.8964 2.97732L14.7537 1.34225L13.1185 0.484996L12.2613 2.12014L13.8964 2.97732ZM12.8261 12.4319L13.7492 14.0307L12.8261 12.4319ZM12.8261 11.0463L13.7492 9.44746L12.8261 11.0463ZM9.18739 8.94547L10.1105 7.34665L10.1105 7.34665L9.18739 8.94547ZM7.98739 9.63829L9.83354 9.63829V9.63829H7.98739ZM7.98739 13.8399L6.14123 13.8399V13.8399H7.98739ZM9.18739 14.5327L10.1105 16.1315L10.1105 16.1315L9.18739 14.5327ZM11.2003 11.7004C10.5146 9.98628 10.5146 9.98628 10.5146 9.98629C10.5146 9.98629 10.5146 9.98629 10.5146 9.9863C10.5144 9.98635 10.5145 9.98631 10.5144 9.98637C10.514 9.98654 10.5143 9.9864 10.5137 9.98663C10.5131 9.98688 10.5123 9.98721 10.5111 9.98769C10.5088 9.98862 10.5053 9.99 10.5007 9.99183C10.4916 9.99548 10.4781 10.0009 10.4607 10.0078C10.4259 10.0218 10.3752 10.0421 10.312 10.0673C10.1855 10.1179 10.0087 10.1886 9.80751 10.2691C9.40514 10.4301 8.90514 10.6301 8.51462 10.7863L9.88591 14.2145C10.2764 14.0583 10.7764 13.8583 11.1788 13.6973C11.38 13.6169 11.5568 13.5462 11.6832 13.4956C11.7465 13.4703 11.7971 13.45 11.832 13.4361C11.8495 13.4291 11.8629 13.4237 11.872 13.4201C11.8766 13.4182 11.88 13.4169 11.8824 13.4159C11.8835 13.4154 11.8844 13.4151 11.885 13.4149C11.8853 13.4147 11.8855 13.4147 11.8857 13.4146C11.8858 13.4145 11.8858 13.4145 11.8859 13.4145C11.8859 13.4145 11.8859 13.4145 11.8859 13.4145C11.8859 13.4145 11.8859 13.4145 11.2003 11.7004ZM10.9913 12.9481C11.0206 12.8309 11.0219 12.8256 11.0533 12.7C11.0748 12.6141 11.0974 12.5236 11.1197 12.4345C11.1487 12.3186 11.1075 12.4832 11.1365 12.3673C11.1408 12.35 11.1406 12.351 11.1449 12.3337C11.1474 12.3239 11.1467 12.3267 11.1491 12.3169C11.1519 12.3057 11.1484 12.3198 11.1512 12.3086C11.1515 12.3072 11.1519 12.3058 11.1522 12.3044C11.1526 12.303 11.1529 12.3016 11.1533 12.3002C11.1567 12.2863 11.154 12.2973 11.1575 12.2834C11.1586 12.2789 11.1584 12.2796 11.1596 12.2751C11.1603 12.2723 11.161 12.2695 11.1616 12.2667C11.1674 12.2438 11.1643 12.2563 11.17 12.2334C11.19 12.1534 11.1665 12.2471 11.1865 12.1673C11.1868 12.1659 11.1872 12.1646 11.1875 12.1632C11.1879 12.1618 11.1882 12.1605 11.1886 12.1591C11.1889 12.1577 11.1892 12.1564 11.1896 12.155C11.1899 12.1536 11.1903 12.1523 11.1906 12.1509C11.1909 12.1495 11.1913 12.1482 11.1916 12.1468C11.192 12.1454 11.1923 12.1441 11.1927 12.1427C11.1941 12.1367 11.1932 12.1405 11.1947 12.1346C11.195 12.1332 11.1954 12.1318 11.1957 12.1305C11.1961 12.1291 11.1964 12.1278 11.1967 12.1264C11.2129 12.0619 11.1826 12.1828 11.1988 12.1183C11.1991 12.1169 11.1994 12.1156 11.1998 12.1142C11.2001 12.1129 11.2005 12.1115 11.2008 12.1101C11.2039 12.0977 11.1997 12.1144 11.2028 12.102C11.2185 12.0395 11.2033 12.1 11.2189 12.0379C11.2213 12.028 11.2184 12.0399 11.2208 12.03C11.2212 12.0286 11.2215 12.0273 11.2218 12.026C11.2222 12.0247 11.2225 12.0234 11.2228 12.022C11.2234 12.0199 11.2262 12.0084 11.2268 12.0063C11.2411 11.9488 11.2202 12.0324 11.2346 11.9751C11.2455 11.9314 11.2391 11.957 11.2499 11.9138C11.2549 11.8937 11.2599 11.8739 11.2647 11.8544C11.265 11.8534 11.2663 11.8481 11.2665 11.8471C11.2809 11.7899 11.254 11.8971 11.2684 11.8399C11.2702 11.8324 11.2701 11.8329 11.272 11.8255C11.2864 11.7679 11.2647 11.8545 11.2791 11.7971C11.2927 11.7426 11.2794 11.7958 11.2928 11.7421C11.3189 11.6377 11.2734 11.8197 11.2994 11.7155C11.3237 11.6184 11.2817 11.7866 11.3059 11.6896C11.3076 11.683 11.3169 11.6457 11.3183 11.64C11.3186 11.639 11.3196 11.6349 11.3198 11.634C11.3246 11.6148 11.3165 11.6472 11.3213 11.628C11.3231 11.6211 11.3211 11.6291 11.3228 11.6221C11.323 11.6212 11.3233 11.6202 11.3235 11.6192C11.3238 11.6182 11.324 11.6173 11.3243 11.6163C11.3324 11.5836 11.3219 11.6258 11.33 11.5934C11.3523 11.504 11.3187 11.6384 11.3408 11.5501C11.3522 11.5047 11.3397 11.5544 11.3508 11.5103C11.3551 11.4931 11.3558 11.4902 11.3598 11.4743C11.3778 11.4023 11.3501 11.5129 11.3678 11.4423C11.3769 11.4057 11.3659 11.4496 11.3747 11.4145C11.3824 11.3839 11.3702 11.4325 11.3778 11.4023C11.3809 11.3898 11.3775 11.4034 11.3805 11.3913C11.3947 11.3346 11.376 11.4093 11.3885 11.3593C11.3897 11.3544 11.388 11.3614 11.3892 11.3567C11.3897 11.3546 11.3889 11.3576 11.3895 11.3555C11.3899 11.3537 11.3893 11.3562 11.3897 11.3544C11.3902 11.3525 11.3902 11.3524 11.3906 11.351C11.3912 11.3484 11.3901 11.3528 11.3908 11.3503C11.3908 11.3502 11.3908 11.3501 11.3908 11.35C11.3909 11.3499 11.3909 11.3498 11.3909 11.3497C11.391 11.3493 11.391 11.3492 11.3911 11.3489C11.3913 11.3483 11.3911 11.3488 11.3913 11.3483C11.3913 11.3483 11.3913 11.3483 11.3913 11.3482C11.3913 11.3482 11.3913 11.3482 11.3913 11.3482C11.3913 11.3482 11.3913 11.3482 11.3913 11.3482C11.3913 11.3482 11.3913 11.3481 9.60026 10.9004C7.80923 10.4526 7.80923 10.4526 7.80923 10.4526C7.80923 10.4527 7.80922 10.4527 7.80922 10.4527C7.80883 10.4542 7.80958 10.4512 7.80919 10.4528C7.80916 10.4529 7.80911 10.4531 7.80905 10.4533C7.80891 10.4539 7.80901 10.4535 7.80883 10.4542C7.80854 10.4554 7.80885 10.4542 7.80853 10.4554C7.79382 10.5143 7.82161 10.4031 7.80645 10.4637C7.80592 10.4659 7.80403 10.4734 7.80308 10.4773C7.80176 10.4825 7.80233 10.4802 7.80092 10.4859C7.79875 10.4946 7.80072 10.4867 7.79845 10.4958C7.79546 10.5077 7.77737 10.5801 7.7687 10.6148C7.76021 10.6487 7.73673 10.7426 7.72386 10.7941C7.72359 10.7952 7.72332 10.7963 7.72306 10.7973C7.72279 10.7984 7.72252 10.7995 7.72225 10.8005C7.7109 10.846 7.732 10.7615 7.72064 10.807C7.72037 10.8081 7.7201 10.8091 7.71983 10.8102C7.71956 10.8113 7.71929 10.8124 7.71902 10.8135C7.71875 10.8146 7.71847 10.8157 7.7182 10.8167C7.71793 10.8178 7.71766 10.8189 7.71738 10.82C7.71711 10.8211 7.71684 10.8222 7.71656 10.8233C7.71629 10.8244 7.71601 10.8255 7.71574 10.8266C7.71546 10.8277 7.71519 10.8288 7.71491 10.8299C7.71464 10.831 7.71436 10.8321 7.71408 10.8332C7.71316 10.8369 7.71168 10.8428 7.71074 10.8466C7.71046 10.8477 7.71018 10.8488 7.7099 10.8499C7.70962 10.8511 7.70934 10.8522 7.70906 10.8533C7.70878 10.8544 7.70849 10.8556 7.70821 10.8567C7.70793 10.8578 7.70765 10.859 7.70736 10.8601C7.7028 10.8783 7.70852 10.8555 7.70394 10.8738C7.70288 10.878 7.70329 10.8764 7.70222 10.8807C7.70126 10.8845 7.70145 10.8838 7.70049 10.8876C7.7002 10.8888 7.69991 10.8899 7.69962 10.8911C7.69933 10.8923 7.69903 10.8934 7.69874 10.8946C7.69845 10.8957 7.69816 10.8969 7.69787 10.8981C7.69758 10.8993 7.69728 10.9004 7.69699 10.9016C7.68867 10.9349 7.69116 10.9249 7.68266 10.9589C7.67135 11.0042 7.67928 10.9724 7.66781 11.0183C7.66214 11.041 7.65831 11.0563 7.6525 11.0795C7.64953 11.0914 7.63989 11.13 7.6368 11.1424C7.63614 11.145 7.63547 11.1477 7.63481 11.1503C7.63267 11.1589 7.63496 11.1497 7.63282 11.1583C7.62834 11.1762 7.6333 11.1564 7.62882 11.1743C7.62256 11.1993 7.62703 11.1814 7.62076 11.2065C7.61022 11.2487 7.62319 11.1968 7.61263 11.239C7.5893 11.3323 7.62778 11.1784 7.60444 11.2718C7.56535 11.4282 7.57723 11.3807 7.53763 11.539C7.52695 11.5817 7.53991 11.5299 7.52923 11.5726C7.52771 11.5787 7.52237 11.6001 7.52085 11.6062C7.51108 11.6452 7.52225 11.6006 7.51248 11.6396C7.51214 11.641 7.51179 11.6424 7.51144 11.6438C7.51109 11.6452 7.51075 11.6466 7.5104 11.648C7.51005 11.6494 7.5097 11.6507 7.50936 11.6521C7.50901 11.6535 7.50866 11.6549 7.50831 11.6563C7.50738 11.66 7.50508 11.6692 7.50415 11.6729C7.48456 11.7513 7.50714 11.661 7.4876 11.7391C7.47845 11.7758 7.48034 11.7682 7.47127 11.8045C7.45125 11.8846 7.48319 11.7568 7.4632 11.8368C7.45184 11.8822 7.47054 11.8074 7.45919 11.8528C7.45348 11.8756 7.4609 11.8459 7.4552 11.8688C7.44555 11.9074 7.45691 11.8619 7.44729 11.9004C7.44479 11.9104 7.44586 11.9061 7.44337 11.9161C7.44086 11.9261 7.44391 11.9139 7.44141 11.9239C7.44109 11.9252 7.44076 11.9265 7.44044 11.9278C7.44011 11.9291 7.43979 11.9304 7.43947 11.9317C7.42357 11.9953 7.42452 11.9915 7.40923 12.0526L10.9913 12.9481ZM8.77464 12.5516L9.45589 12.8923L11.1071 9.58976L10.4259 9.24914L8.77464 12.5516ZM9.45589 12.8923L10.3746 13.3516L12.0259 10.0491L11.1071 9.58977L9.45589 12.8923ZM13.3132 2.6716L12.7862 3.67692L16.0563 5.39127L16.5834 4.38595L13.3132 2.6716ZM13.4482 6.10298C15.3238 7.26631 16.5665 9.33756 16.5665 11.688H20.2588C20.2588 8.00271 18.3061 4.77119 15.3943 2.96522L13.4482 6.10298ZM16.5665 11.688C16.5665 15.307 13.6193 18.2542 10.0003 18.2542V21.9465C15.6585 21.9465 20.2588 17.3462 20.2588 11.688H16.5665ZM10.0003 18.2542C6.38126 18.2542 3.43404 15.307 3.43404 11.688H-0.258263C-0.258263 17.3462 4.34206 21.9465 10.0003 21.9465V18.2542ZM3.43404 11.688C3.43404 9.33756 4.67675 7.26633 6.55237 6.10304L4.60626 2.96524C1.69447 4.77118 -0.258263 8.00271 -0.258263 11.688H3.43404ZM7.21441 3.67696L6.68738 2.67163L3.41719 4.38599L3.94422 5.39131L7.21441 3.67696ZM5.90951 5.16388L6.96135 4.61242L5.2469 1.34229L4.19506 1.89374L5.90951 5.16388ZM4.46903 3.83453L4.99519 4.8382L8.26538 3.12384L7.73922 2.12018L4.46903 3.83453ZM7.37233 5.67148C8.04236 5.37737 8.77023 5.19216 9.53547 5.13855L9.27742 1.45527C8.08078 1.5391 6.93877 1.82942 5.88825 2.29056L7.37233 5.67148ZM11.2526 3.29691V2.08802H7.5603V3.29691H11.2526ZM9.40645 0.241866H7.49559V3.93417H9.40645V0.241866ZM9.34175 2.08802V0.900391H5.64944V2.08802H9.34175ZM7.49559 2.74654H12.505V-0.945763H7.49559V2.74654ZM10.6588 0.900391V2.08802H14.3511V0.900391H10.6588ZM12.505 0.241866H10.5941V3.93417H12.505V0.241866ZM8.74796 2.08802V3.29687H12.4403V2.08802H8.74796ZM10.465 5.1385C11.2304 5.19215 11.9583 5.37735 12.6282 5.67144L14.1123 2.29052C13.0617 1.82936 11.9198 1.53911 10.7232 1.45523L10.465 5.1385ZM15.0054 4.83816L15.5315 3.83449L12.2613 2.12014L11.7352 3.1238L15.0054 4.83816ZM13.0392 4.61238L14.0911 5.16384L15.8055 1.8937L14.7537 1.34225L13.0392 4.61238ZM1.54872 11.688C1.54872 15.9572 4.88577 20.1396 10.0003 20.1396V16.4473C7.14727 16.4473 5.24103 14.1476 5.24103 11.688H1.54872ZM10.0003 20.1396C15.1148 20.1396 18.4518 15.9572 18.4518 11.688H14.7595C14.7595 14.1476 12.8533 16.4473 10.0003 16.4473V20.1396ZM18.4518 11.688C18.4518 7.41884 15.1148 3.23648 10.0003 3.23648V6.92879C12.8533 6.92879 14.7595 9.22842 14.7595 11.688H18.4518ZM10.0003 3.23648C4.88577 3.23648 1.54872 7.41884 1.54872 11.688H5.24103C5.24103 9.22842 7.14727 6.92879 10.0003 6.92879V3.23648ZM13.7492 14.0307C15.5133 13.0122 15.5133 10.466 13.7492 9.44746L11.903 12.6451C11.2056 12.2424 11.2056 11.2358 11.903 10.8331L13.7492 14.0307ZM13.7492 9.44746L10.1105 7.34665L8.26431 10.5443L11.903 12.6451L13.7492 9.44746ZM10.1105 7.34665C8.34636 6.32815 6.14123 7.60128 6.14123 9.63829H9.83354C9.83354 10.4436 8.96174 10.9469 8.26431 10.5443L10.1105 7.34665ZM6.14123 9.63829L6.14123 13.8399L9.83354 13.8399L9.83354 9.63829L6.14123 9.63829ZM6.14123 13.8399C6.14123 15.8769 8.34636 17.15 10.1105 16.1315L8.26431 12.9339C8.96175 12.5313 9.83354 13.0346 9.83354 13.8399H6.14123ZM10.1105 16.1315L13.7492 14.0307L11.903 10.8331L8.26431 12.9339L10.1105 16.1315Z" fill="white" mask="url(#path-1-inside-1_10695_863)"></path></g><defs><clipPath id="clip0_10695_863"><rect width="20" height="20" fill="white" transform="translate(0 0.5)"></rect></clipPath></defs></svg>