<svg class="SVGInline-svg main-mobile-menu__menu-icon-svg" viewBox="0 0 20 21" fill="none" xmlns="http://www.w3.org/2000/svg"><path d="M13.6786 11.0255L13.1531 10.5L12.1021 11.551L13.1531 12.6021L14.2041 11.551L13.6786 11.0255ZM13.6786 11.0255L13.1531 11.6807M6.84685 9.00143L6.38403 8.00713C6.34256 7.91803 6.28845 7.83284 6.2066 7.77844C5.91796 7.58662 5.52481 7.61796 5.27031 7.87245C4.98007 8.16268 4.98007 8.63324 5.27031 8.92348L6.84685 10.5L8.42339 8.92348C8.71363 8.63324 8.71363 8.16268 8.42339 7.87245C8.1689 7.61796 7.77575 7.58662 7.48711 7.77844C7.40526 7.83284 7.35115 7.91803 7.30968 8.00713L6.84685 9.00143ZM6.84685 9.00143L5.62766 8.81838M6.84685 9.00143L7.98197 8.48205M8.07733 16.8062C8.51018 18.0308 9.67813 18.9082 11.051 18.9082H15.2551C16.9965 18.9082 18.4082 17.4965 18.4082 15.7551V7.34692C18.4082 5.60553 16.9965 4.19385 15.2551 4.19385H12.1021M3.60977 16.8062H10.0841C11.1986 16.8062 12.1021 15.9027 12.1021 14.7882V4.10977C12.1021 2.99527 11.1986 2.0918 10.0841 2.0918H3.60977C2.49528 2.0918 1.5918 2.99527 1.5918 4.10977V14.7882C1.5918 15.9027 2.49527 16.8062 3.60977 16.8062Z" stroke="white" stroke-width="1.7" stroke-linecap="round" stroke-linejoin="round"></path></svg>