<svg class="SVGInline-svg links-menu-side-menu__item-icon-svg" viewBox="0 0 24 24" fill="none" xmlns="http://www.w3.org/2000/svg"><path fill-rule="evenodd" clip-rule="evenodd" d="M19.1429 21.6927C20.4694 21.5903 21.5918 20.5659 21.6939 19.2343C21.7171 18.9083 21.7456 18.5452 21.7757 18.1607C21.8782 16.854 22 15.2999 22 14.1127C22 12.5762 21.6939 10.4251 21.4898 8.99104C21.3878 7.65941 20.2653 6.63508 18.9388 6.53265C17.939 6.46574 16.765 6.39883 15.5591 6.33192C15.2879 6.31687 15.015 6.30182 14.7421 6.28677C14.371 6.26629 13.9998 6.24582 13.6327 6.22535L16.4898 3.35723C16.7959 3.04994 16.7959 2.53777 16.4898 2.23047C16.1837 1.92318 15.6735 1.92318 15.3673 2.23047L11.898 5.81562L9.34694 3.35723C9.04082 3.04994 8.53061 3.04994 8.22449 3.35723C7.91837 3.66453 7.91837 4.1767 8.22449 4.48399L10.0612 6.32778C9.41006 6.28933 8.71578 6.29418 8.02154 6.32066C7.20748 6.35171 6.39347 6.41249 5.64913 6.46808C5.33717 6.49137 5.03745 6.51375 4.7551 6.53265C4.04082 6.53265 3.53061 6.83995 3.02041 7.35211C2.61224 7.76184 2.30612 8.27401 2.30612 8.99104C2.28294 9.31678 2.2545 9.67951 2.22438 10.0636C2.1219 11.3706 2 12.9252 2 14.1127C2 15.3002 2.12191 16.8549 2.22439 18.1619C2.25451 18.5459 2.28294 18.9086 2.30612 19.2343C2.40816 20.5659 3.53061 21.5903 4.85714 21.6927C5.36274 21.7181 5.91843 21.7497 6.50251 21.783C8.27605 21.884 10.3113 22 12 22C13.6887 22 15.7238 21.8841 17.4973 21.783C18.0815 21.7497 18.6372 21.7181 19.1429 21.6927ZM20.0642 9.19394C20.0598 9.16308 20.0564 9.13209 20.054 9.10102C20.0115 8.54615 19.5183 8.02458 18.8341 7.96886C17.6203 7.88772 16.1491 7.80656 14.6674 7.72484C13.3872 7.65422 12.1109 7.69624 10.8311 7.73837C10.5464 7.74775 10.2615 7.75713 9.97632 7.76527C9.97632 7.76527 7.17457 7.79903 5.79859 7.9013C5.47499 7.92535 5.1579 7.94891 4.85125 7.96944C4.81925 7.97158 4.78718 7.97265 4.7551 7.97265C4.55946 7.97265 4.39447 8.01315 4.04059 8.36839C3.9202 8.48924 3.85148 8.58869 3.81124 8.67351C3.77456 8.75083 3.74612 8.84746 3.74612 8.99104C3.74612 9.02514 3.74491 9.05923 3.74249 9.09324C3.71755 9.44376 3.68772 9.82463 3.65666 10.2213C3.55495 11.5201 3.44 12.9879 3.44 14.1127C3.44 15.2375 3.55496 16.7054 3.65667 18.0042C3.68758 18.399 3.71728 18.7782 3.74215 19.1273C3.78602 19.6785 4.27422 20.1959 4.95196 20.2556C5.4727 20.2819 6.03554 20.3139 6.62104 20.3473C8.38582 20.4478 10.3564 20.56 12 20.56C13.6435 20.56 15.614 20.4478 17.3788 20.3473L17.3822 20.3471C17.9665 20.3138 18.5283 20.2818 19.0481 20.2556C19.7257 20.1959 20.2139 19.6786 20.2579 19.1274C20.2827 18.778 20.3125 18.398 20.3434 18.003C20.4451 16.7045 20.56 15.2372 20.56 14.1127C20.56 12.7002 20.2731 10.6618 20.0642 9.19394Z" fill="white"></path><path d="M14.5899 12.9583C15.1455 13.2791 15.1455 14.0809 14.5899 14.4017L10.9699 16.4917C10.4144 16.8124 9.71994 16.4115 9.71994 15.77V11.59C9.71994 10.9485 10.4144 10.5476 10.9699 10.8683L14.5899 12.9583Z" fill="white"></path></svg>