<svg class="SVGInline-svg SVG-component__content-svg" viewBox="0 0 30 30" fill="none" xmlns="http://www.w3.org/2000/svg"><path d="M22.9963 13.345H22.4772V9.63457C22.4772 5.51558 19.1269 2.1599 15.0025 2.1599C10.8781 2.1599 7.52785 5.51558 7.52785 9.63457V11.0598C7.52785 11.7036 8.05358 12.2293 8.69736 12.2293C9.34114 12.2293 9.86687 11.7036 9.86687 11.0598V9.63457C9.86687 6.80302 12.171 4.49892 15.0025 4.49892C17.8341 4.49892 20.1382 6.80302 20.1382 9.63457V13.345H7.00359C5.60106 13.345 4.45531 14.4849 4.45531 15.8933V25.2916C4.45531 26.6941 5.5952 27.8399 7.00359 27.8399H20.972C21.6158 27.8399 22.1415 27.3142 22.1415 26.6704C22.1415 26.0266 21.6158 25.5009 20.972 25.5009H7.00359C6.88827 25.5009 6.79433 25.4069 6.79433 25.2916V15.8933C6.79433 15.7779 6.88827 15.684 7.00359 15.684H22.9963C23.1116 15.684 23.2056 15.7779 23.2056 15.8933V25.2916C23.2056 25.9354 23.7313 26.4611 24.3751 26.4611C25.0188 26.4611 25.5446 25.9354 25.5446 25.2916V15.8933C25.5446 14.4907 24.4047 13.345 22.9963 13.345ZM17.2285 19.423C16.5847 19.423 16.059 19.9487 16.059 20.5925C16.059 21.1726 15.5829 21.6487 15.0029 21.6487C14.4228 21.6487 13.9467 21.1726 13.9467 20.5925C13.9467 20.0124 14.4228 19.5364 15.0029 19.5364C15.6466 19.5364 16.1724 19.0106 16.1724 18.3669C16.1724 17.7231 15.6466 17.1973 15.0029 17.1973C13.1301 17.1973 11.6077 18.7197 11.6077 20.5925C11.6077 22.4653 13.1301 23.9877 15.0029 23.9877C16.8756 23.9877 18.398 22.4653 18.398 20.5925C18.398 19.9487 17.8723 19.423 17.2285 19.423Z" fill="url(#paint0_linear_11653_2720)" stroke="url(#paint1_linear_11653_2720)" stroke-width="0.48"></path><defs><linearGradient id="paint0_linear_11653_2720" x1="4.69531" y1="14.9999" x2="23.0352" y2="21.4513" gradientUnits="userSpaceOnUse"><stop stop-color="#5428B4"></stop><stop offset="1" stop-color="#B339E2"></stop></linearGradient><linearGradient id="paint1_linear_11653_2720" x1="4.69531" y1="14.9999" x2="23.0352" y2="21.4513" gradientUnits="userSpaceOnUse"><stop stop-color="#5428B4"></stop><stop offset="1" stop-color="#B339E2"></stop></linearGradient></defs></svg>