<svg xmlns="http://www.w3.org/2000/svg" width="24" height="24" fill="#ffc745" viewBox="0 0 24 24" className="mobile-menu-links_icon" data-sentry-element="LogoutZeusIcon" data-sentry-source-file="mobile-menu-links.tsx">
                                            <g fill="#ffc745" clip-path="url(#clip0_13409_11051)">
                                                <path
                                                    d="M17.36 11.929c-.052.145-.47.59-1.815 1.935-.96.961-1.818 1.782-1.908 1.824-.417.197-.848.117-1.185-.22a.98.98 0 0 1-.32-.77c.005-.35.15-.566.906-1.326l.712-.712H8.308c-6.099 0-5.756.019-6.108-.333-.178-.183-.333-.525-.333-.745s.155-.563.333-.746c.352-.351.005-.332 6.155-.332h5.489l-.783-.788c-.488-.487-.811-.848-.858-.956-.276-.67.244-1.444.97-1.444.15 0 .352.033.45.07.118.052.732.633 1.88 1.772 1.828 1.819 1.927 1.946 1.922 2.377 0 .117-.028.295-.066.394"
                                                ></path>
                                                <path
                                                    d="M4.192 19.326c.267 1.477 1.223 2.662 2.395 2.967.399.103 13.77 0 14.16-.103a2.7 2.7 0 0 0 1.18-.675c.558-.525.914-1.144 1.149-1.997l.131-.469v-7.5c0-5.971-.014-7.56-.06-7.804a5 5 0 0 0-.47-1.336c-.173-.342-.3-.506-.642-.844-.46-.464-.886-.717-1.383-.82-.187-.038-5.079.056-8.847.065l-5.18.014-.272.108c-.886.361-1.575 1.116-1.955 2.157-.262.717-.281.946-.281 3.225v2.08h2.109V6.46c0-2.09.024-2.32.258-2.836.131-.286.347-.54.549-.647.107-.056.88-.066 4.945-.066 4.702 0 8.234-.098 8.379-.009.338.202.624.778.717 1.43.066.468.061 13.823-.005 14.301-.088.633-.36 1.19-.693 1.411l-.16.108-8.299.094-4.889-.014-.211-.207a2 2 0 0 1-.333-.478c-.234-.53-.258-.75-.258-2.845V14.77H4.117l.005 2.095c.004 1.57.018 2.19.07 2.461"
                                                ></path>
                                            </g>
                                            <defs>
                                                <clipPath id="clip0_13409_11051"><path fill="#fff" d="M0 24V0h24v24z"></path></clipPath>
                                            </defs>
                                        </svg>