<svg xmlns="http://www.w3.org/2000/svg" width="24" height="23" fill="#ffc745" viewBox="0 0 24 23" className="mobile-menu-links_icon">
                                            <path
                                                fill="#ffc745"
                                                d="M11.307 4.162C10.155 5.895 8.997 7.024 7.57 7.82c-.703.392-.96.5-2.774 1.165-1.998.732-1.92.694-2.325 1.105a2.54 2.54 0 0 0-.71 2.131c.04.295.075.406.59 1.83.606 1.677.59 1.643.955 2.02.435.447.98.71 1.6.766.362.037.598.011.99-.104l.34-.1.558 1.584c.462 1.309.579 1.613.664 1.74.478.71 1.385.913 2.133.478.364-.212.663-.65.727-1.057.017-.113.023-1.047.013-2.073-.01-1.029-.013-1.883-.004-1.903.021-.044.567-.113 1.059-.135a9 9 0 0 1 1.723.086c1.086.146 2.02.4 3.66.989-.484-.176-1.192-1.206-1.44-1.587-.286-.392-.773-1.25-1.136-1.993-1.147-2.351-2.072-5.41-2.252-7.462a3 3 0 0 0-.028-.231c-.022-.544-.123-1.696-.022-1.86-.165.266-.457.764-.583.953"
                                            ></path>
                                            <path
                                                fill="#ffc745"
                                                fill-rule="evenodd"
                                                d="M15.256 4.656c-.695-1.049-1.453-1.814-1.996-2.008-.127-.045-.254-.074-.278-.065-.124.044-.301.386-.388.747-.17.69-.192 1.617-.059 2.682.078.641.202 1.35.239 1.362.016.006-.004.003.158 0 .947-.017 1.9.34 2.452.928.565.6.745 1.296.562 2.135-.1.456-.281.837-.581 1.226-.201.26-.61.8-.735.843-.074.026-.075.023.225.56.71 1.273 1.423 2.203 2.106 2.729.277.219.693.406.8.369s.31-.44.387-.762c.586-2.478-.784-7.578-2.892-10.746"
                                                clip-rule="evenodd"
                                            ></path>
                                            <path
                                                fill="#ffc745"
                                                d="M18.92 12.825c0-.35.284-.635.635-.635h3.81a.635.635 0 0 1 0 1.27h-3.81a.635.635 0 0 1-.635-.635M18.849 10.414a.635.635 0 0 1 .553-.708l3.781-.465a.635.635 0 1 1 .155 1.261l-3.782.464a.635.635 0 0 1-.707-.552M18.51 7.94a.635.635 0 0 1 .462-.77l3.696-.922a.635.635 0 1 1 .308 1.232l-3.697.922a.635.635 0 0 1-.77-.463M17.515 5.714a.635.635 0 0 1 .365-.82l3.557-1.366a.635.635 0 0 1 .455 1.186l-3.557 1.365a.635.635 0 0 1-.82-.365M15.952 3.434a.635.635 0 0 1 .263-.86L19.579.787a.635.635 0 1 1 .596 1.122l-3.364 1.788a.635.635 0 0 1-.859-.262"
                                            ></path>
                                        </svg>