<svg xmlns="http://www.w3.org/2000/svg" width="24" height="24" fill="#ffc745" viewBox="0 0 24 24" className="mobile-menu-links_icon">
                                            <path
                                                fill="#ffc745"
                                                d="M11.486 1.078c-2.56.262-4.823 1.349-6.573 3.156-1.56 1.615-2.53 3.628-2.863 5.96-.07.484-.065 2.058.004 2.562.218 1.579.748 3.046 1.545 4.288l.214.332-.715.586c-.395.324-.764.644-.818.71-.131.155-.127.323.017.475.107.119.164.135 2.255.541 1.314.254 2.181.406 2.247.39a.44.44 0 0 0 .189-.115c.082-.086.082-.136.082-2.34v-2.251l-.12-.12c-.086-.085-.16-.118-.266-.118-.152 0-.263.078-1.196.852-.246.21-.46.378-.472.378s-.11-.144-.214-.32a9 9 0 0 1-1.15-3.111c-.123-.701-.135-2.124-.02-2.82.452-2.685 1.95-4.899 4.26-6.28a8.85 8.85 0 0 1 3.651-1.206c.587-.061 1.697-.028 2.325.066 2.418.363 4.405 1.491 6.104 3.997.012 0 .107.143.21.315a8.77 8.77 0 0 1 1.252 4.28 8.7 8.7 0 0 1-1.5 5.25c-1.396 2.063-3.433 3.37-5.984 3.83-.595.106-2.156.106-2.805 0-.526-.087-.686-.066-.912.122-.452.382-.296 1.152.267 1.316.714.213 2.534.262 3.573.103 1.142-.177 2.062-.472 3.122-.992 4.334-2.132 6.61-6.928 5.545-11.666-.25-1.107-.739-2.28-1.355-3.239-3.99-5.745-9.012-5.025-9.9-4.931"
                                            ></path>
                                            <path
                                                fill="#ffc745"
                                                d="M11.898 6.919c-.357.09-.812.336-1.095.607-.526.488-.784 1.054-.83 1.805l-.024.402h.751v-.3c0-.537.156-.922.525-1.308a1.77 1.77 0 0 1 2.573.012c.34.357.48.686.505 1.19l.02.406h.739l-.025-.402c-.045-.734-.259-1.218-.747-1.715-.266-.27-.394-.365-.677-.5a3.3 3.3 0 0 0-.566-.21c-.287-.057-.874-.053-1.149.013"
                                            ></path>
                                            <path
                                                fill="#ffc745"
                                                d="m8.997 9.82-.102.099v6.072l.098.115.098.115h6.828l.098-.115.099-.115V9.919l-.103-.099-.098-.103h-6.82zm4.09.722c1.022.345 1.519 1.518 1.043 2.478-.086.177-.23.378-.353.497l-.201.2-.004.49c0 .405-.012.52-.082.66-.177.365-.513.59-.927.627a.77.77 0 0 1-.472-.082 1.15 1.15 0 0 1-.575-.545c-.061-.132-.078-.263-.078-.657v-.492l-.197-.193a1.79 1.79 0 0 1 .025-2.585c.361-.336.718-.476 1.231-.48.242-.004.41.02.59.082"
                                            ></path>
                                            <path
                                                fill="#ffc745"
                                                d="M13.088 10.542c1.021.345 1.518 1.518 1.042 2.478-.086.177-.23.378-.353.497l-.201.2-.004.49c0 .405-.012.52-.082.66-.177.365-.513.59-.927.627a.77.77 0 0 1-.472-.082 1.15 1.15 0 0 1-.575-.545c-.061-.132-.078-.263-.078-.657v-.492l-.197-.193a1.79 1.79 0 0 1 .025-2.585c.361-.336.718-.476 1.231-.48.242-.004.41.02.59.082"
                                            ></path>
                                        </svg>