<svg class="SVGInline-svg SVG-component__content-svg" viewBox="0 0 30 31" fill="none" xmlns="http://www.w3.org/2000/svg"><g clip-path="url(#clip0_10343_87027)"><path d="M24.6048 10.3409C24.9605 10.9443 25.7183 11.2281 26.4067 11.016C26.8685 10.8736 27.3714 11.0614 27.6094 11.4652L28.8856 13.63C29.6532 14.932 29.5669 16.563 28.6659 17.785C28.3414 18.225 27.7048 18.3307 27.244 18.0212C26.7831 17.7114 26.6726 17.1039 26.9969 16.664C27.4478 16.0525 27.491 15.2366 27.107 14.5854L26.1875 13.0255C24.8396 13.1132 23.5119 12.4594 22.8262 11.2963C22.1406 10.1333 22.2441 8.71065 23.0222 7.65636L22.1026 6.09654C21.5508 5.16045 20.3038 4.8274 19.3231 5.35417L16.5663 6.83502C16.8427 7.3039 16.6686 7.89775 16.1774 8.1616C15.6862 8.42545 15.0641 8.25929 14.7877 7.79041L3.67138 13.7616C2.69071 14.2884 2.3418 15.4787 2.89366 16.4147L3.81322 17.9746C5.16113 17.8869 6.48881 18.5407 7.17447 19.7038C7.86014 20.8668 7.75659 22.2894 6.97851 23.3437L7.89807 24.9036C8.44993 25.8396 9.6969 26.1727 10.6776 25.6459L21.7939 19.6747C21.5174 19.2059 21.6915 18.612 22.1827 18.3482C22.6739 18.0843 23.2961 18.2505 23.5725 18.7194L24.0729 19.5682C24.3493 20.0371 24.1753 20.631 23.6841 20.8948L11.6784 27.3437C9.71694 28.3973 7.22327 27.7313 6.11947 25.8589L4.84324 23.6941C4.60524 23.2904 4.69806 22.7826 5.06518 22.4797C5.61243 22.0281 5.75155 21.2625 5.39587 20.6591C5.04018 20.0558 4.28235 19.772 3.59396 19.9841C3.13222 20.1265 2.62928 19.9387 2.39127 19.5349L1.11505 17.3701C0.011242 15.4978 0.708991 13.1175 2.6705 12.0638L18.3222 3.65641C20.2838 2.60278 22.7774 3.26881 23.8812 5.14115L25.1575 7.30597C25.3955 7.70968 25.3026 8.21753 24.9355 8.52039C24.3883 8.97197 24.2491 9.73761 24.6048 10.3409ZM16.9281 9.43492C16.4369 9.69877 16.2628 10.2926 16.5392 10.7615C16.8156 11.2304 17.4378 11.3965 17.929 11.1327C18.4202 10.8688 18.5942 10.275 18.3178 9.80611C18.0414 9.33723 17.4193 9.17107 16.9281 9.43492ZM18.6796 12.406C18.1884 12.6699 18.0144 13.2637 18.2908 13.7326C18.5672 14.2015 19.1893 14.3676 19.6805 14.1038C20.1717 13.8399 20.3458 13.2461 20.0694 12.7772C19.793 12.3083 19.1708 12.1422 18.6796 12.406ZM20.4312 15.3771C19.94 15.6409 19.7659 16.2348 20.0423 16.7037C20.3187 17.1725 20.9409 17.3387 21.4321 17.0748C21.9233 16.811 22.0973 16.2171 21.8209 15.7483C21.5445 15.2794 20.9224 15.1132 20.4312 15.3771ZM9.76395 14.9597C9.34932 14.2564 8.41596 14.0073 7.67933 14.4029C6.9427 14.7986 6.68141 15.6895 7.09603 16.3928C7.51066 17.0961 8.44402 17.3453 9.18065 16.9496C9.91728 16.5539 10.1786 15.663 9.76395 14.9597ZM17.1634 19.3678C17.9 18.9721 18.1613 18.0812 17.7467 17.3779C17.3321 16.6746 16.3987 16.4255 15.6621 16.8211C14.9255 17.2168 14.6642 18.1077 15.0788 18.811C15.4934 19.5143 16.4268 19.7635 17.1634 19.3678ZM11.5182 22.1552C11.7559 22.1923 11.9879 22.1478 12.1828 22.0432C12.4437 21.903 12.6379 21.6553 12.6899 21.3512L14.1669 12.7339C14.2578 12.2031 13.8807 11.7023 13.3246 11.6155C12.7683 11.5285 12.2438 11.8887 12.1529 12.4195L10.6759 21.0368C10.5848 21.5677 10.962 22.0684 11.5182 22.1552Z" fill="url(#paint0_linear_10343_87027)"></path><path d="M16.9275 9.43461C16.4363 9.69846 16.2622 10.2923 16.5386 10.7612C16.815 11.2301 17.4371 11.3962 17.9283 11.1324C18.4195 10.8685 18.5936 10.2747 18.3172 9.8058C18.0408 9.33692 17.4187 9.17076 16.9275 9.43461ZM18.679 12.4057C18.1878 12.6695 18.0137 13.2634 18.2901 13.7323C18.5666 14.2011 19.1887 14.3673 19.6799 14.1035C20.1711 13.8396 20.3452 13.2458 20.0688 12.7769C19.7923 12.308 19.1702 12.1418 18.679 12.4057ZM20.4306 15.3768C19.9394 15.6406 19.7653 16.2345 20.0417 16.7034C20.3181 17.1722 20.9402 17.3384 21.4314 17.0745C21.9226 16.8107 22.0967 16.2168 21.8203 15.748C21.5439 15.2791 20.9218 15.1129 20.4306 15.3768ZM9.76332 14.9594C9.3487 14.2561 8.41533 14.0069 7.6787 14.4026C6.94207 14.7983 6.68078 15.6892 7.09541 16.3925C7.51003 17.0958 8.4434 17.345 9.18003 16.9493C9.91666 16.5536 10.1779 15.6627 9.76332 14.9594ZM17.1628 19.3675C17.8994 18.9718 18.1607 18.0809 17.7461 17.3776C17.3314 16.6743 16.3981 16.4251 15.6615 16.8208C14.9248 17.2165 14.6635 18.1074 15.0782 18.8107C15.4928 19.514 16.4262 19.7632 17.1628 19.3675ZM11.5175 22.1549C11.7553 22.192 11.9873 22.1475 12.1822 22.0428C12.443 21.9027 12.6373 21.6549 12.6892 21.3509L14.1662 12.7336C14.2572 12.2028 13.8801 11.702 13.3239 11.6152C12.7677 11.5282 12.2432 11.8884 12.1522 12.4192L10.6752 21.0365C10.5841 21.5674 10.9614 22.0681 11.5175 22.1549Z" fill="url(#paint1_linear_10343_87027)"></path></g><defs><linearGradient id="paint0_linear_10343_87027" x1="3.61726" y1="21.6145" x2="25.884" y2="22.4648" gradientUnits="userSpaceOnUse"><stop stop-color="#5428B4"></stop><stop offset="1" stop-color="#B339E2"></stop></linearGradient><linearGradient id="paint1_linear_10343_87027" x1="8.59672" y1="18.9391" x2="19.7914" y2="19.4073" gradientUnits="userSpaceOnUse"><stop stop-color="#5428B4"></stop><stop offset="1" stop-color="#B339E2"></stop></linearGradient><clipPath id="clip0_10343_87027"><rect width="30" height="30" fill="white" transform="translate(0 0.5)"></rect></clipPath></defs></svg>