<svg xmlns="http://www.w3.org/2000/svg" width="39" height="39" fill="none" viewBox="0 0 39 39"><path fill="#F2CE00" d="M14.625 23.156H7.313c-.732 0-1.22.488-1.22 1.219s.488 1.219 1.22 1.219H11.7l-6.46 6.46a1.18 1.18 0 0 0 0 1.705 1.18 1.18 0 0 0 1.707 0l6.46-6.459v4.387c0 .732.487 1.22 1.218 1.22s1.219-.488 1.219-1.22v-7.312c0-.731-.488-1.219-1.219-1.219M27.3 25.594h4.387c.732 0 1.22-.488 1.22-1.219s-.488-1.219-1.22-1.219h-7.312c-.731 0-1.219.488-1.219 1.219v7.313c0 .73.488 1.218 1.219 1.218s1.219-.487 1.219-1.218V27.3l6.46 6.46a1.18 1.18 0 0 0 1.705 0 1.18 1.18 0 0 0 0-1.707zM24.375 15.844h7.313c.73 0 1.218-.488 1.218-1.219s-.487-1.219-1.218-1.219H27.3l6.46-6.46a1.18 1.18 0 0 0 0-1.705 1.18 1.18 0 0 0-1.707 0l-6.46 6.459V7.313c0-.732-.487-1.22-1.218-1.22s-1.219.488-1.219 1.22v7.312c0 .731.488 1.219 1.219 1.219M14.625 6.094c-.731 0-1.219.487-1.219 1.218V11.7l-6.46-6.46a1.18 1.18 0 0 0-1.705 0 1.18 1.18 0 0 0 0 1.707l6.459 6.46H7.313c-.732 0-1.22.487-1.22 1.218s.488 1.219 1.22 1.219h7.312c.731 0 1.219-.488 1.219-1.219V7.313c0-.732-.488-1.22-1.219-1.22"></path></svg>