<svg class="SVGInline-svg main-mobile-menu__menu-icon-svg" viewBox="0 0 20 21" fill="none" xmlns="http://www.w3.org/2000/svg"><path d="M15.1335 1.7002H4.86686C2.845 1.7002 1.2002 3.345 1.2002 5.36686C1.2002 7.20055 2.55461 8.71968 4.31471 8.98734C4.73813 10.681 5.89686 12.082 7.43353 12.8341V15.1161C6.35985 15.5524 5.60019 16.6052 5.60019 17.8335V18.5669C5.60019 18.9717 5.92873 19.3002 6.33353 19.3002H13.6669C14.0717 19.3002 14.4002 18.9717 14.4002 18.5669V17.8335C14.4002 16.6052 13.6405 15.5524 12.5669 15.1161V12.8341C14.1035 12.082 15.2623 10.681 15.6857 8.98734C17.4458 8.71968 18.8002 7.20055 18.8002 5.36686C18.8002 3.345 17.1554 1.7002 15.1335 1.7002ZM2.66686 5.36686C2.66686 4.41099 3.28024 3.59798 4.13353 3.29523V7.43849C3.28024 7.13574 2.66686 6.32274 2.66686 5.36686ZM7.06686 17.8335C7.06686 17.0246 7.72464 16.3669 8.53353 16.3669H11.4669C12.2757 16.3669 12.9335 17.0246 12.9335 17.8335H7.06686ZM11.1002 14.9002H8.90019V13.3265C9.25701 13.3947 9.62404 13.4335 10.0002 13.4335C10.3764 13.4335 10.7434 13.3947 11.1002 13.3265V14.9002ZM10.0002 11.9669C7.57389 11.9669 5.60019 9.99316 5.60019 7.56686V3.16686H14.4002V7.56686C14.4002 9.99316 12.4265 11.9669 10.0002 11.9669ZM15.8669 7.43849V3.29523C16.7201 3.59798 17.3335 4.41099 17.3335 5.36686C17.3335 6.32274 16.7201 7.13574 15.8669 7.43849Z" fill="white"></path></svg>