<svg xmlns="http://www.w3.org/2000/svg" width="10" height="16" fill="none" viewBox="0 0 10 16" data-sentry-element="ProvidersArrowRightIcon" data-sentry-source-file="providers-carousel.tsx"><path fill="#000305" d="M9.107 7.407 2.619.644A.76.76 0 0 0 2.05.4a.76.76 0 0 0-.568.244l-.736.767a.83.83 0 0 0-.234.593.72.72 0 0 0 .2.592L5.897 8 .713 13.404a.72.72 0 0 0-.201.592q0 .349.234.593l.736.767a.76.76 0 0 0 .568.244.76.76 0 0 0 .569-.244l6.488-6.763A.77.77 0 0 0 9.374 8q0-.348-.267-.593"></path></svg>