<svg xmlns="http://www.w3.org/2000/svg" width="10" height="16" fill="none" viewBox="0 0 10 16" data-sentry-element="ProvidersArrowLeftIcon" data-sentry-source-file="providers-carousel.tsx"><path fill="#000305" d="m.775 8.593 6.488 6.763a.76.76 0 0 0 .569.244.76.76 0 0 0 .568-.244l.736-.767a.83.83 0 0 0 .234-.593.72.72 0 0 0-.2-.592L3.986 8 9.17 2.596a.72.72 0 0 0 .2-.592.83.83 0 0 0-.234-.593L8.4.644A.76.76 0 0 0 7.832.4a.76.76 0 0 0-.569.244L.775 7.407A.77.77 0 0 0 .508 8q0 .348.267.593"></path></svg>