<svg xmlns="http://www.w3.org/2000/svg" width="19" height="17" fill="none" viewBox="0 0 19 17"><path fill="#fff" d="M16.994.984a2.2 2.2 0 0 0-.7.167c-.192.075-.879.364-1.973.823l-4.09 1.718-8.344 3.511c-.061.026-.31.102-.584.31-.275.21-.58.666-.58 1.164 0 .402.2.812.443 1.046.242.234.488.344.693.425v-.001l3.258 1.302c.175.524.926 2.768 1.104 3.333H6.22c.126.4.249.66.42.877.085.108.187.207.312.284q.074.044.155.075l.023.007-.021-.005q.022.01.045.02c.026.01.043.01.078.016.122.038.243.063.356.063.483 0 .78-.262.78-.262l.019-.014 2.087-1.766 2.557 2.365c.046.066.412.56 1.259.56.505 0 .904-.25 1.16-.511.255-.263.414-.531.486-.895l.002-.002c.057-.293 2.504-12.581 2.504-12.581l-.005.02c.076-.34.098-.668.008-1.003a1.44 1.44 0 0 0-.625-.834 1.47 1.47 0 0 0-.826-.212m-.351 1.947c-.097.485-2.29 11.499-2.425 12.19l-3.692-3.417-2.495 2.11.691-2.702s4.768-4.826 5.055-5.107c.232-.225.28-.304.28-.382 0-.104-.054-.18-.177-.18-.111 0-.262.107-.342.157-1.017.634-5.348 3.102-7.478 4.314-.128-.051-2.053-.824-3.09-1.238L15.01 3.613c.922-.387 1.404-.587 1.634-.682m-2.45 12.316h.001l-.002.005c.002-.006 0 0 0-.005"></path></svg>