<svg class="SVGInline-svg SVG-component__content-svg" viewBox="0 0 123 101" fill="none" xmlns="http://www.w3.org/2000/svg"><path fill-rule="evenodd" clip-rule="evenodd" d="M3.09617 33.8164L0.318107 51.4807C-1.38212 60.9658 3.83087 69.1462 13.6159 69.1462H117.205L123 33.8164H3.09617ZM24.554 59.6416C23.3597 60.6587 21.8377 61.2185 20.2674 61.2185H15.1656C13.2305 61.2185 11.4015 60.3772 10.1454 58.9102C8.88928 57.4433 8.34315 55.5099 8.64714 53.6053L10.5462 41.706H14.4969L12.501 54.2165C12.3763 54.9952 12.5999 55.7862 13.1131 56.3851C13.6262 56.985 14.3743 57.3292 15.1656 57.3292H20.2674C20.9093 57.3292 21.5317 57.1002 22.0202 56.6841C22.5086 56.2691 22.8321 55.6917 22.9331 55.0599L25.0517 41.706H29.0014L26.786 55.667C26.5407 57.2131 25.7483 58.6257 24.554 59.6416ZM44.8814 61.2606H29.4527L29.4579 61.2299H28.2048L28.8283 57.3107L30.6903 45.6139L31.3137 41.6947H35.2932L34.6698 45.6139L32.8088 57.3107L32.8036 57.3426H45.5059L44.8824 61.2606H44.8814ZM51.7957 57.3117L51.1723 61.2299H47.1928L47.8162 57.3117L49.6771 45.6139H42.6558L43.2791 41.6947H60.6173L59.9939 45.6139H53.6566L51.7957 57.3117ZM63.8189 61.2299H59.8394L60.4627 57.3117L62.3247 45.6139L62.9481 41.6947H66.9267L66.3032 45.6139L64.4422 57.3117L63.8189 61.2299ZM86.8883 61.2606H82.9386L84.9892 48.3095L79.1559 60.707L78.9591 61.126L78.8962 61.2606H74.2943L74.2686 61.0932L72.2396 47.7199L70.0952 61.2606H66.1456L69.2421 41.705H75.2721L77.3495 55.3875L77.5391 54.9848L77.7359 54.5658L83.7867 41.705H89.9848L86.8883 61.2606ZM113.152 47.2535C113.17 49.229 112.137 50.9887 110.578 52.0016C110.503 52.0509 110.478 52.1506 110.521 52.2297C111.1 53.2857 111.376 54.5267 111.222 55.8355C110.878 58.7746 108.105 61.1928 105.137 61.2175L96.4013 61.2504C93.1513 61.2781 90.3886 58.7993 90.1713 55.5653C90.0012 53.0259 91.4336 50.7648 93.5593 49.7036C93.2244 48.9957 93.0327 48.2109 93.0255 47.3839C92.9987 44.3072 95.5162 41.7554 98.6013 41.7287L107.482 41.6947C110.567 41.6691 113.126 44.1777 113.153 47.2535H113.152ZM107.478 45.5954L98.6343 45.6283C97.6729 45.6365 96.9042 46.4686 96.9382 47.3973C96.9722 48.327 97.7666 49.0491 98.6992 49.041L107.544 49.0081H107.545C108.506 48.9989 109.275 48.2037 109.241 47.2411C109.209 46.3104 108.411 45.5872 107.478 45.5954ZM105.087 52.9292L96.2509 52.9631C95.0504 52.9735 94.0818 53.9041 94.0694 55.1328C94.0571 56.3626 95.0998 57.36 96.3333 57.3498L105.17 57.3169C106.37 57.3065 107.337 56.3399 107.352 55.1493C107.366 53.9175 106.322 52.9191 105.087 52.9292Z" fill="white"></path></svg>