<svg class="SVGInline-svg profile-navigation-mobile__icon-svg" viewBox="0 0 31 31" fill="none" xmlns="http://www.w3.org/2000/svg"><mask id="path-1-outside-1_10536_38826" maskUnits="userSpaceOnUse" x="4.64062" y="1.45435" width="22" height="27" fill="black"><rect fill="white" x="4.64062" y="1.45435" width="22" height="27"></rect><path d="M23.9416 13.6394H23.1825V9.68902C23.1825 5.70246 19.9396 2.45435 15.9478 2.45435C11.9561 2.45435 8.71317 5.70246 8.71317 9.68902V11.1143C8.71317 11.6255 9.13144 12.0438 9.64267 12.0438C10.1539 12.0438 10.5722 11.6255 10.5722 11.1143V9.68902C10.5722 6.72492 12.9837 4.31336 15.9478 4.31336C18.9119 4.31336 21.3235 6.72492 21.3235 9.68902V13.6394H7.9489C6.67858 13.6394 5.64062 14.6722 5.64062 15.9477V25.3461C5.64062 26.6164 6.67341 27.6543 7.9489 27.6543H21.9173C22.4286 27.6543 22.8469 27.2361 22.8469 26.7248C22.8469 26.2136 22.4286 25.7953 21.9173 25.7953H7.9489C7.70104 25.7953 7.49964 25.5939 7.49964 25.3461V15.9477C7.49964 15.6998 7.70104 15.4984 7.9489 15.4984H23.9416C24.1895 15.4984 24.3909 15.6998 24.3909 15.9477V25.3461C24.3909 25.8573 24.8091 26.2756 25.3204 26.2756C25.8316 26.2756 26.2499 25.8573 26.2499 25.3461V15.9477C26.2499 14.6774 25.2171 13.6394 23.9416 13.6394Z"></path><path d="M18.1738 19.7174C17.6626 19.7174 17.2443 20.1357 17.2443 20.647C17.2443 21.3596 16.6608 21.9431 15.9482 21.9431C15.2355 21.9431 14.652 21.3596 14.652 20.647C14.652 19.9343 15.2355 19.3508 15.9482 19.3508C16.4594 19.3508 16.8777 18.9325 16.8777 18.4213C16.8777 17.9101 16.4594 17.4918 15.9482 17.4918C14.2079 17.4918 12.793 18.9067 12.793 20.647C12.793 22.3872 14.2079 23.8021 15.9482 23.8021C17.6884 23.8021 19.1033 22.3872 19.1033 20.647C19.1033 20.1357 18.685 19.7174 18.1738 19.7174Z"></path></mask><path d="M23.9416 13.6394H23.1825V9.68902C23.1825 5.70246 19.9396 2.45435 15.9478 2.45435C11.9561 2.45435 8.71317 5.70246 8.71317 9.68902V11.1143C8.71317 11.6255 9.13144 12.0438 9.64267 12.0438C10.1539 12.0438 10.5722 11.6255 10.5722 11.1143V9.68902C10.5722 6.72492 12.9837 4.31336 15.9478 4.31336C18.9119 4.31336 21.3235 6.72492 21.3235 9.68902V13.6394H7.9489C6.67858 13.6394 5.64062 14.6722 5.64062 15.9477V25.3461C5.64062 26.6164 6.67341 27.6543 7.9489 27.6543H21.9173C22.4286 27.6543 22.8469 27.2361 22.8469 26.7248C22.8469 26.2136 22.4286 25.7953 21.9173 25.7953H7.9489C7.70104 25.7953 7.49964 25.5939 7.49964 25.3461V15.9477C7.49964 15.6998 7.70104 15.4984 7.9489 15.4984H23.9416C24.1895 15.4984 24.3909 15.6998 24.3909 15.9477V25.3461C24.3909 25.8573 24.8091 26.2756 25.3204 26.2756C25.8316 26.2756 26.2499 25.8573 26.2499 25.3461V15.9477C26.2499 14.6774 25.2171 13.6394 23.9416 13.6394Z" fill="#EDEDED"></path><path d="M18.1738 19.7174C17.6626 19.7174 17.2443 20.1357 17.2443 20.647C17.2443 21.3596 16.6608 21.9431 15.9482 21.9431C15.2355 21.9431 14.652 21.3596 14.652 20.647C14.652 19.9343 15.2355 19.3508 15.9482 19.3508C16.4594 19.3508 16.8777 18.9325 16.8777 18.4213C16.8777 17.9101 16.4594 17.4918 15.9482 17.4918C14.2079 17.4918 12.793 18.9067 12.793 20.647C12.793 22.3872 14.2079 23.8021 15.9482 23.8021C17.6884 23.8021 19.1033 22.3872 19.1033 20.647C19.1033 20.1357 18.685 19.7174 18.1738 19.7174Z" fill="#EDEDED"></path><path d="M23.1825 13.6394H22.8225V13.9994H23.1825V13.6394ZM21.3235 13.6394V13.9994H21.6835V13.6394H21.3235ZM23.9416 13.2794H23.1825V13.9994H23.9416V13.2794ZM23.5425 13.6394V9.68902H22.8225V13.6394H23.5425ZM23.5425 9.68902C23.5425 5.50381 20.1386 2.09435 15.9478 2.09435V2.81435C19.7406 2.81435 22.8225 5.90112 22.8225 9.68902H23.5425ZM15.9478 2.09435C11.7571 2.09435 8.35317 5.50381 8.35317 9.68902H9.07317C9.07317 5.90112 12.1551 2.81435 15.9478 2.81435V2.09435ZM8.35317 9.68902V11.1143H9.07317V9.68902H8.35317ZM8.35317 11.1143C8.35317 11.8243 8.93262 12.4038 9.64267 12.4038V11.6838C9.33027 11.6838 9.07317 11.4267 9.07317 11.1143H8.35317ZM9.64267 12.4038C10.3527 12.4038 10.9322 11.8243 10.9322 11.1143H10.2122C10.2122 11.4267 9.95508 11.6838 9.64267 11.6838V12.4038ZM10.9322 11.1143V9.68902H10.2122V11.1143H10.9322ZM10.9322 9.68902C10.9322 6.92374 13.1826 4.67336 15.9478 4.67336V3.95336C12.7849 3.95336 10.2122 6.5261 10.2122 9.68902H10.9322ZM15.9478 4.67336C18.7131 4.67336 20.9635 6.92374 20.9635 9.68902H21.6835C21.6835 6.5261 19.1108 3.95336 15.9478 3.95336V4.67336ZM20.9635 9.68902V13.6394H21.6835V9.68902H20.9635ZM21.3235 13.2794H7.9489V13.9994H21.3235V13.2794ZM7.9489 13.2794C6.48028 13.2794 5.28062 14.4729 5.28062 15.9477H6.00063C6.00063 14.8716 6.87687 13.9994 7.9489 13.9994V13.2794ZM5.28062 15.9477V25.3461H6.00063V15.9477H5.28062ZM5.28062 25.3461C5.28062 26.8147 6.47407 28.0143 7.9489 28.0143V27.2943C6.87276 27.2943 6.00063 26.4181 6.00063 25.3461H5.28062ZM7.9489 28.0143H21.9173V27.2943H7.9489V28.0143ZM21.9173 28.0143C22.6274 28.0143 23.2069 27.4349 23.2069 26.7248H22.4869C22.4869 27.0372 22.2298 27.2943 21.9173 27.2943V28.0143ZM23.2069 26.7248C23.2069 26.0148 22.6274 25.4353 21.9173 25.4353V26.1553C22.2298 26.1553 22.4869 26.4124 22.4869 26.7248H23.2069ZM21.9173 25.4353H7.9489V26.1553H21.9173V25.4353ZM7.9489 25.4353C7.89986 25.4353 7.85964 25.3951 7.85964 25.3461H7.13964C7.13964 25.7928 7.50221 26.1553 7.9489 26.1553V25.4353ZM7.85964 25.3461V15.9477H7.13964V25.3461H7.85964ZM7.85964 15.9477C7.85964 15.8987 7.89986 15.8584 7.9489 15.8584V15.1384C7.50221 15.1384 7.13964 15.501 7.13964 15.9477H7.85964ZM7.9489 15.8584H23.9416V15.1384H7.9489V15.8584ZM23.9416 15.8584C23.9907 15.8584 24.0309 15.8987 24.0309 15.9477H24.7509C24.7509 15.501 24.3883 15.1384 23.9416 15.1384V15.8584ZM24.0309 15.9477V25.3461H24.7509V15.9477H24.0309ZM24.0309 25.3461C24.0309 26.0561 24.6103 26.6356 25.3204 26.6356V25.9156C25.008 25.9156 24.7509 25.6585 24.7509 25.3461H24.0309ZM25.3204 26.6356C26.0304 26.6356 26.6099 26.0561 26.6099 25.3461H25.8899C25.8899 25.6585 25.6328 25.9156 25.3204 25.9156V26.6356ZM26.6099 25.3461V15.9477H25.8899V25.3461H26.6099ZM26.6099 15.9477C26.6099 14.4791 25.4164 13.2794 23.9416 13.2794V13.9994C25.0178 13.9994 25.8899 14.8757 25.8899 15.9477H26.6099ZM18.1738 19.3574C17.4638 19.3574 16.8843 19.9369 16.8843 20.647H17.6043C17.6043 20.3345 17.8614 20.0774 18.1738 20.0774V19.3574ZM16.8843 20.647C16.8843 21.1608 16.462 21.5831 15.9482 21.5831V22.3031C16.8596 22.3031 17.6043 21.5584 17.6043 20.647H16.8843ZM15.9482 21.5831C15.4344 21.5831 15.012 21.1608 15.012 20.647H14.292C14.292 21.5584 15.0367 22.3031 15.9482 22.3031V21.5831ZM15.012 20.647C15.012 20.1332 15.4344 19.7108 15.9482 19.7108V18.9908C15.0367 18.9908 14.292 19.7355 14.292 20.647H15.012ZM15.9482 19.7108C16.6582 19.7108 17.2377 19.1314 17.2377 18.4213H16.5177C16.5177 18.7337 16.2606 18.9908 15.9482 18.9908V19.7108ZM17.2377 18.4213C17.2377 17.7113 16.6582 17.1318 15.9482 17.1318V17.8518C16.2606 17.8518 16.5177 18.1089 16.5177 18.4213H17.2377ZM15.9482 17.1318C14.0091 17.1318 12.433 18.7079 12.433 20.647H13.153C13.153 19.1055 14.4067 17.8518 15.9482 17.8518V17.1318ZM12.433 20.647C12.433 22.586 14.0091 24.1621 15.9482 24.1621V23.4421C14.4067 23.4421 13.153 22.1884 13.153 20.647H12.433ZM15.9482 24.1621C17.8872 24.1621 19.4633 22.586 19.4633 20.647H18.7433C18.7433 22.1884 17.4896 23.4421 15.9482 23.4421V24.1621ZM19.4633 20.647C19.4633 19.9369 18.8839 19.3574 18.1738 19.3574V20.0774C18.4862 20.0774 18.7433 20.3345 18.7433 20.647H19.4633Z" fill="#EDEDED" mask="url(#path-1-outside-1_10536_38826)"></path></svg>