<svg class="SVGInline-svg home-links-mobile__sub-item-icon-svg" viewBox="0 0 25 24" fill="none" xmlns="http://www.w3.org/2000/svg"><g clip-path="url(#clip0_10437_38644)"><path d="M17.4785 12.6875L16.791 12L15.416 13.375L16.791 14.75L18.166 13.375L17.4785 12.6875ZM17.4785 12.6875L16.791 13.5446M8.54092 10.0395L7.93543 8.73871C7.88118 8.62215 7.81039 8.51069 7.70331 8.43953C7.3257 8.18858 6.81136 8.22958 6.47841 8.56252C6.09872 8.94222 6.09872 9.55782 6.47841 9.93752L8.54092 12L10.6034 9.93752C10.9831 9.55782 10.9831 8.94222 10.6034 8.56252C10.2705 8.22958 9.75615 8.18858 9.37853 8.43953C9.27145 8.51069 9.20066 8.62215 9.14641 8.73871L8.54092 10.0395ZM8.54092 10.0395L6.94592 9.80002M8.54092 10.0395L10.0259 9.36002M10.1507 20.25C10.717 21.8521 12.2449 23 14.041 23H19.541C21.8192 23 23.666 21.1532 23.666 18.875V7.875C23.666 5.59683 21.8192 3.75 19.541 3.75H15.4161M4.30602 20.25H12.7761C14.2341 20.25 15.4161 19.068 15.4161 17.61V3.64C15.4161 2.18197 14.2341 1 12.7761 1H4.30602C2.84799 1 1.66602 2.18197 1.66602 3.64V17.61C1.66602 19.068 2.84799 20.25 4.30602 20.25Z" stroke="#FFBC0F" stroke-width="1.5" stroke-linecap="round" stroke-linejoin="round"></path></g><defs><clipPath id="clip0_10437_38644"><rect width="24" height="24" fill="white" transform="translate(0.666016)"></rect></clipPath></defs></svg>