<svg class="SVGInline-svg home-links-mobile__sub-item-icon-svg" viewBox="0 0 25 24" fill="none" xmlns="http://www.w3.org/2000/svg"><path d="M11.4353 9.93942C12.2717 9.21822 13.1292 8.52204 14.0068 7.85181C15.0153 8.13675 16.0064 8.48023 16.975 8.88051C16.561 7.98985 16.083 7.13039 15.5448 6.30892C15.81 5.91589 16.0818 5.52738 16.3602 5.14366L16.336 5.13691C15.6387 4.94399 14.863 4.81513 14.0322 4.75856C13.4351 4.34932 12.8645 4.04161 12.337 3.84113C12.1284 4.11434 11.9122 4.49806 11.6818 4.98907C10.7686 5.23529 9.87841 5.55979 9.02097 5.95904C9.71614 6.17115 10.4921 6.47686 11.3351 6.8689C11.3514 7.67931 11.3786 8.57275 11.4181 9.53512C11.4236 9.66854 11.4294 9.80336 11.4353 9.93942Z" fill="#FFBC0F"></path><path d="M19.3332 7.26654C19.02 7.19175 18.5994 7.17555 18.0768 7.21015L18.0768 7.20912C18.062 6.59941 17.9885 6.09256 17.8584 5.6989C17.5084 5.36406 17.1346 5.05544 16.7402 4.77548C17.8082 5.42833 18.7202 6.31134 19.4071 7.35557C19.3827 7.32572 19.3581 7.29604 19.3332 7.26654Z" fill="#FFBC0F"></path><path d="M5.43468 15.6298C5.45962 16.2322 5.55589 16.75 5.71675 17.1686L5.71569 17.1695C6.16898 17.7548 6.68564 18.2879 7.25622 18.7593C7.23114 18.744 7.20636 18.7287 7.18174 18.7134C6.10974 17.8896 5.24069 16.8148 4.66247 15.5768C4.83156 15.6302 5.09039 15.6425 5.43468 15.6298Z" fill="#FFBC0F"></path><path d="M15.4791 19.5823C15.9377 19.1674 16.3967 18.6234 16.8391 17.9656C17.036 18.3226 17.1733 18.5898 17.2554 18.7789C17.4563 18.6718 17.6511 18.5536 17.8389 18.425L17.8235 18.4387C17.5842 18.643 17.3333 18.8342 17.0719 19.0112C16.8807 19.1407 16.684 19.2625 16.4821 19.3763C15.7296 19.8005 14.9057 20.1129 14.0329 20.2909C13.7309 20.2898 13.4293 20.2617 13.1318 20.2065C13.9266 20.0867 14.7191 19.8759 15.4791 19.5823Z" fill="#FFBC0F"></path><path d="M13.3572 15.6285C13.4903 14.5896 13.608 13.472 13.706 12.3053C12.7426 12.9518 11.7678 13.5811 10.782 14.1927C9.77428 13.7651 8.78275 13.3003 7.8094 12.7993C8.07861 13.8321 8.40598 14.8489 8.78994 15.8447C8.37018 16.334 7.94824 16.8215 7.52413 17.3071C8.2912 17.5662 9.14801 17.7693 10.0662 17.9078C10.6139 18.4937 11.1444 18.9732 11.6474 19.3331C11.9565 18.9553 12.2882 18.4583 12.644 17.8479C13.6157 17.6592 14.5714 17.3955 15.5026 17.0593C14.7681 16.6114 14.0521 16.1339 13.3562 15.628L13.3572 15.6285Z" fill="#FFBC0F"></path><path d="M20.6344 12.2673C20.6839 11.7521 20.6899 11.2551 20.6564 10.7832C20.6373 10.6565 20.6152 10.5302 20.5902 10.4045C20.5052 10.5227 20.3508 10.6522 20.1355 10.8008C19.8168 10.2368 19.3899 9.64961 18.8649 9.05758C19.0438 9.94614 19.1459 10.8485 19.1699 11.7546C18.6905 12.3295 18.0989 12.9365 17.4074 13.5624C18.1402 13.7799 18.7593 13.9615 19.2676 14.1091C19.3082 14.8533 19.2786 15.5237 19.1806 16.1057C19.5907 15.4669 19.9353 14.7883 20.2093 14.0804C20.3322 14.0177 20.5106 13.866 20.6078 13.7769C20.6844 13.4185 20.7383 13.0517 20.7679 12.6781C20.7531 12.6264 20.7338 12.5786 20.7143 12.5301C20.6825 12.4511 20.6499 12.3702 20.6344 12.2673Z" fill="#FFBC0F"></path><path d="M6.58677 6.14345C6.70658 5.88505 6.83431 5.65562 6.96773 5.4568C6.72498 5.65611 6.49352 5.86863 6.27445 6.09327C6.36272 6.09421 6.46772 6.11185 6.58677 6.14345Z" fill="#FFBC0F"></path><path d="M11.3384 19.9891C10.7889 20.0955 10.292 20.1292 9.8653 20.0961C10.4265 20.267 11.0124 20.3811 11.6163 20.4317C11.5208 20.3337 11.4281 20.1828 11.3384 19.9891Z" fill="#FFBC0F"></path><path d="M8.04173 11.0854C7.20809 11.2664 6.3796 11.4705 5.5572 11.6972C5.31089 12.5621 5.16099 13.3772 5.11234 14.1156C4.7469 13.3254 4.47851 12.5349 4.31518 11.7742C4.12788 11.717 3.98133 11.6642 3.88041 11.6098C3.89863 11.2083 3.94484 10.8141 4.01712 10.4291C4.08894 10.0466 4.1865 9.67315 4.30793 9.31065C4.44659 8.89672 4.61638 8.49706 4.81452 8.11442C4.94995 8.1709 5.08481 8.22878 5.21907 8.28799C5.73977 7.71244 6.37704 7.14816 7.11109 6.61767C6.7583 7.37021 6.46149 8.22439 6.23328 9.15149C6.71856 9.73286 7.32463 10.3798 8.04173 11.0854Z" fill="#FFBC0F"></path><path fill-rule="evenodd" clip-rule="evenodd" d="M1.33301 12.0003C1.33301 5.92471 6.25772 1 12.3327 1C18.4083 1 23.333 5.92525 23.333 12.0003C23.333 18.0753 18.4083 23 12.3327 23C6.25772 23 1.33301 18.0753 1.33301 12.0003ZM2.86692 12.0003C2.86692 17.2199 7.11314 21.4661 12.3327 21.4661C17.5529 21.4661 21.7991 17.2199 21.7991 12.0003C21.7991 6.78068 17.5523 2.53389 12.3327 2.53389C7.11314 2.53389 2.86692 6.78068 2.86692 12.0003Z" fill="#FFBC0F"></path></svg>