<svg class="SVGInline-svg home-links-mobile__sub-item-icon-svg" viewBox="0 0 24 24" fill="none" xmlns="http://www.w3.org/2000/svg"><path fill-rule="evenodd" clip-rule="evenodd" d="M4.85176 2.93884L10.1698 1.34352C10.7983 1.15534 11.0838 1.08489 11.437 1.03762C11.8104 0.987461 12.1889 0.987461 12.5623 1.03762C12.9155 1.08489 13.2019 1.15534 13.8295 1.34352L19.1475 2.93884C20.2757 3.27718 20.8624 3.5525 21.4511 4.03267C22.0186 4.49202 22.4614 5.08688 22.7386 5.7624C23.0279 6.46412 23.1233 7.10466 23.1233 8.28191V15.7181C23.1233 16.8953 23.0279 17.5359 22.7386 18.2376C22.4613 18.9136 22.0182 19.5088 21.4501 19.9683C20.8624 20.4475 20.2757 20.7228 19.1475 21.0612L13.8295 22.6565C13.201 22.8447 12.9155 22.9151 12.5623 22.9624C12.1889 23.0125 11.8104 23.0125 11.437 22.9624C11.0838 22.9151 10.7974 22.8447 10.1698 22.6565L4.85269 21.0612C3.72456 20.7228 3.13779 20.4475 2.54916 19.9673C1.98137 19.5083 1.53826 18.9138 1.26067 18.2385C0.971455 17.5359 0.875977 16.8953 0.875977 15.7181V8.28191C0.875977 7.10466 0.971455 6.46412 1.26067 5.7624C1.53799 5.08645 1.98112 4.49125 2.54916 4.03174C3.13686 3.5525 3.72364 3.27718 4.85176 2.93884ZM5.38385 4.71492C4.3892 5.0134 4.05179 5.1988 3.719 5.46947C3.39006 5.73472 3.13393 6.07922 2.97464 6.47061C2.81057 6.86642 2.72992 7.24277 2.72992 8.28098V15.7172C2.72992 16.7554 2.81057 17.1317 2.97464 17.5294C3.13872 17.9261 3.38529 18.258 3.719 18.5296C4.05179 18.8003 4.3892 18.9857 5.38385 19.2842L10.7028 20.8795C11.2692 21.05 11.4602 21.0936 11.6798 21.1223C11.8986 21.152 12.1007 21.152 12.3195 21.1223C12.5392 21.0945 12.7301 21.05 13.2965 20.8795L18.6155 19.2842C19.6101 18.9857 19.9475 18.8003 20.2803 18.5296C20.6092 18.2643 20.8654 17.9199 21.0247 17.5285C21.1887 17.1317 21.2694 16.7554 21.2694 15.7172V8.28191C21.2694 7.2437 21.1887 6.86735 21.0247 6.46968C20.8651 6.07869 20.609 5.73455 20.2803 5.46947C19.9475 5.1988 19.6101 5.0134 18.6155 4.71492L13.2965 3.1196C12.7301 2.94904 12.5392 2.90547 12.3195 2.87673C12.1072 2.84789 11.8921 2.84789 11.6798 2.87673C11.4602 2.90454 11.2692 2.94904 10.7028 3.1196L5.38385 4.71399V4.71492Z" fill="#FFBC0F"></path><path fill-rule="evenodd" clip-rule="evenodd" d="M12.746 4.89007L12.9267 4.95496V19.0449C12.3305 19.2834 11.6667 19.2907 11.0654 19.0653L5.80666 17.0927C5.34132 16.9185 5.18559 16.8221 5.03264 16.6858C4.88171 16.5528 4.76529 16.3852 4.69337 16.1973C4.61921 16.0063 4.58398 15.8265 4.58398 15.3296V8.67026C4.58398 8.17341 4.61921 7.99357 4.69337 7.80262C4.76753 7.61166 4.87876 7.45037 5.03264 7.3141C5.18559 7.17784 5.34132 7.08143 5.80666 6.90623L11.0654 4.93456C11.6049 4.73228 12.1966 4.71661 12.746 4.89007ZM6.66967 13.3904C6.33689 13.3904 6.06714 13.8057 6.06714 14.3174C6.06714 14.8291 6.33689 15.2444 6.66967 15.2444C7.00246 15.2444 7.27221 14.8291 7.27221 14.3174C7.27221 13.8057 7.00246 13.3904 6.66967 13.3904ZM15.8467 12.4634C16.1795 12.4634 16.4492 12.8787 16.4492 13.3904C16.4492 13.9021 16.1795 14.3174 15.8467 14.3174C15.5139 14.3174 15.2442 13.9021 15.2442 13.3904C15.2442 12.8787 15.5139 12.4634 15.8467 12.4634ZM8.52362 10.6095C8.19084 10.6095 7.92109 11.0248 7.92109 11.5365C7.92109 12.0482 8.19084 12.4634 8.52362 12.4634C8.8564 12.4634 9.12615 12.0482 9.12615 11.5365C9.12615 11.0248 8.8564 10.6095 8.52362 10.6095ZM17.7007 9.68252C18.0334 9.68252 18.3032 10.0978 18.3032 10.6095C18.3032 11.1212 18.0334 11.5365 17.7007 11.5365C17.3679 11.5365 17.0981 11.1212 17.0981 10.6095C17.0981 10.0978 17.3679 9.68252 17.7007 9.68252ZM10.3776 7.82857C10.0448 7.82857 9.77503 8.24386 9.77503 8.75554C9.77503 9.26723 10.0448 9.68252 10.3776 9.68252C10.7103 9.68252 10.9801 9.26723 10.9801 8.75554C10.9801 8.24386 10.7103 7.82857 10.3776 7.82857Z" fill="#FFBC0F"></path></svg>